<svg xmlns="http://www.w3.org/2000/svg" width="49" height="42">
    <path fill="#8549B0" fill-rule="evenodd" d="M27.976 15.626c-.55 0-1-.449-1-.998 0-.55.45-.999 1-.999 4.05 0 7.35 3.296 7.35 7.341 0 4.046-3.3 7.342-7.35 7.342-.55 0-1-.449-1-.999s.45-.999 1-.999c2.95 0 5.35-2.397 5.35-5.344 0-2.947-2.4-5.344-5.35-5.344zm19.2 8.64l-3.75.849c-.2.051-.5.3-.55.5l-1.15 2.747c-.1.249-.1.649 0 .798l2.05 3.247c.55.849.4 2.097-.3 2.797l-1.4 1.397c-.7.7-1.95.85-2.8.3l-3.25-2.047c-.2-.1-.6-.15-.75-.05l-2.75 1.149c-.25.05-.5.35-.55.548l-.85 3.747c-.25.999-1.2 1.747-2.2 1.747h-1c-.55 0-1-.449-1-.998 0-.549.45-.999 1-.999h1c.1 0 .25-.1.25-.2l.85-3.745c.2-.849 1-1.699 1.85-1.998l2.6-1.098c.75-.4 1.9-.35 2.65.149l3.25 2.048c.05.05.25 0 .3-.05l1.4-1.398c.05-.05.1-.25.05-.3l-2.05-3.246c-.45-.8-.5-1.948-.1-2.747l1.1-2.547c.25-.8 1.1-1.549 2-1.748l3.75-.849c.1-.05.2-.15.2-.25v-1.998c0-.099-.1-.249-.2-.249l-3.75-.849c-.85-.2-1.7-1-2-1.848l-1.1-2.597c-.4-.749-.35-1.899.15-2.647l2.05-3.246c.05-.05 0-.25-.05-.3l-1.4-1.398c-.05-.05-.25-.1-.3-.05l-3.25 2.047c-.8.45-1.95.5-2.75.1l-2.6-1.049c-.8-.249-1.55-1.098-1.75-1.997l-.85-3.746c-.05-.1-.15-.2-.25-.2h-1c-.55 0-1-.449-1-.999 0-.549.45-.998 1-.998h1c1 0 1.95.749 2.15 1.748l.85 3.745c.05.2.3.5.5.55l2.8 1.149c.25.099.65.099.8 0l3.25-2.049c.85-.549 2.1-.399 2.8.3l1.4 1.399c.7.698.85 1.947.3 2.797l-2.05 3.245c-.1.2-.15.6-.05.75l1.15 2.746c.1.251.4.5.6.55l3.75.849a2.27 2.27 0 0 1 1.7 2.298v1.997c0 .999-.75 1.997-1.75 2.197zm-23.2 17.68h-22c-.55 0-1-.449-1-.999V4.989c0-2.747 2.25-4.994 5-4.994h18c.55 0 1 .449 1 .998 0 .55-.45.999-1 .999h-18c-1.65 0-3 1.349-3 2.997v34.959h21c.55 0 1 .45 1 .999 0 .55-.45.999-1 .999zm-4-5.993h4c.55 0 1 .45 1 .998 0 .55-.45 1-1 1h-4c-1.65 0-3-1.35-3-2.997V29.96a3.008 3.008 0 0 1 3-2.997h4c.55 0 1 .45 1 1 0 .548-.45.998-1 .998h-4c-.55 0-1 .45-1 .999v4.994c0 .549.45.999 1 .999zm0-12.985h4c.55 0 1 .449 1 .999 0 .549-.45.999-1 .999h-4c-1.65 0-3-1.349-3-2.997v-6.991a3.007 3.007 0 0 1 3-2.997h4c.55 0 1 .449 1 .999 0 .549-.45.998-1 .998h-4c-.55 0-1 .45-1 1v6.991c0 .549.45.999 1 .999zm-12 12.985h6c.55 0 1 .45 1 .998 0 .55-.45 1-1 1h-6c-1.65 0-3-1.35-3-2.997V14.978a3.007 3.007 0 0 1 3-2.997h4c1.65 0 3 1.348 3 2.997v17.979c0 .549-.45.998-1 .998s-1-.449-1-.998V14.978c0-.55-.45-1-1-1h-4c-.55 0-1 .45-1 1v19.976c0 .549.45.999 1 .999zm-1-30.964a1 1 0 1 1 1.999.001 1 1 0 0 1-1.999-.001zm4 0a1 1 0 1 1 1.999.001 1 1 0 0 1-1.999-.001zm4 0a1 1 0 1 1 1.999.001 1 1 0 0 1-1.999-.001zm10 3.995c0 .55-.45.999-1 .999h-18c-.55 0-1-.449-1-.999 0-.549.45-.999 1-.999h18c.55 0 1 .45 1 .999z"/>
</svg>
