<svg xmlns="http://www.w3.org/2000/svg" width="48" height="47">
    <path fill="#FFF" fill-rule="evenodd" d="M46.536 9.277A5.013 5.013 0 0 1 43 10.725a5.022 5.022 0 0 1-2.757-.819L27.598 22.425A6.84 6.84 0 0 1 29 26.568c0 3.489-2.621 6.376-6.016 6.852.003.027.016.051.016.077v5.133c1.161.41 2 1.499 2 2.787 0 1.638-1.346 2.97-3 2.97s-3-1.332-3-2.97c0-1.288.839-2.377 2-2.787v-5.133c0-.026.013-.05.016-.077-3.067-.43-5.495-2.829-5.936-5.863H7.858A3.988 3.988 0 0 1 4 30.527c-2.206 0-4-1.776-4-3.959 0-2.185 1.794-3.961 4-3.961a3.988 3.988 0 0 1 3.858 2.97h7.222c.488-3.352 3.401-5.94 6.92-5.94 1.569 0 3.015.521 4.184 1.388L38.829 8.507A4.884 4.884 0 0 1 38 5.777c0-1.322.52-2.565 1.465-3.499 1.949-1.931 5.122-1.929 7.071 0A4.89 4.89 0 0 1 48 5.777c0 1.323-.52 2.565-1.464 3.5zM4 24.588c-1.103 0-2 .887-2 1.98 0 1.092.897 1.98 2 1.98s2-.888 2-1.98c0-1.093-.897-1.98-2-1.98zm17 16.829c0 .547.449.991 1 .991.551 0 1-.444 1-.991a.996.996 0 0 0-1-.99c-.551 0-1 .444-1 .99zm1-19.8c-2.757 0-5 2.221-5 4.951 0 2.729 2.243 4.95 5 4.95s5-2.221 5-4.95c0-2.73-2.243-4.951-5-4.951zM45.122 3.678A3.008 3.008 0 0 0 43 2.81c-.769 0-1.537.289-2.122.868A2.934 2.934 0 0 0 40 5.777c0 .795.312 1.54.879 2.1a3.024 3.024 0 0 0 4.243 0c.566-.56.878-1.305.878-2.1 0-.793-.312-1.539-.878-2.099zM23 10.546v6.122c0 .547-.448.99-1 .99s-1-.443-1-.99v-6.122c-1.161-.41-2-1.5-2-2.789 0-1.637 1.346-2.969 3-2.969s3 1.332 3 2.969c0 1.289-.839 2.379-2 2.789zm-1-3.778c-.551 0-1 .443-1 .989 0 .547.449.99 1 .99.551 0 1-.443 1-.99a.996.996 0 0 0-1-.989zm7.707 26.03l6.274 6.211A3.972 3.972 0 0 1 38 38.447c2.206 0 4 1.777 4 3.961 0 2.183-1.794 3.959-4 3.959s-4-1.776-4-3.959c0-.733.215-1.41.567-1.999l-6.274-6.212a.98.98 0 0 1 0-1.399 1.004 1.004 0 0 1 1.414 0zM38 44.387c1.103 0 2-.888 2-1.979a1.993 1.993 0 0 0-2-1.981c-1.103 0-2 .889-2 1.981 0 1.091.897 1.979 2 1.979z"/>
</svg>
