<svg xmlns="http://www.w3.org/2000/svg" width="48" height="48">
    <path fill="#8549B0" fill-rule="evenodd" d="M30.257.823a1 1 0 1 0-.52 1.932 21.856 21.856 0 0 1 9.088 5.006l-5.668 5.668A13.927 13.927 0 0 0 25 10.036V.999a1 1 0 0 0-1-1c-13.233 0-24 10.767-24 24s10.767 24 24 24 24-10.767 24-24C48 13.167 40.704 3.637 30.257.823zM2 23.999C2 12.204 11.332 2.546 23 2.021v8.978a1 1 0 0 0 1 1c6.617 0 12 5.383 12 12s-5.383 12-12 12-12-5.383-12-12c0-4.861 2.899-9.21 7.385-11.081a1 1 0 1 0-.77-1.846A13.97 13.97 0 0 0 10 23.999c0 7.382 5.747 13.433 13 13.949v8.025C11.332 45.448 2 35.795 2 23.999zm23 21.975v-8.025c7.253-.517 13-6.568 13-13.95 0-3.5-1.302-6.695-3.433-9.153l5.676-5.676A22.012 22.012 0 0 1 46 23.999c0 11.796-9.332 21.449-21 21.975z"/>
</svg>
