<svg xmlns="http://www.w3.org/2000/svg" width="44" height="25">
    <path fill="#E25695" fill-rule="evenodd" d="M27.84 14.67c0 2.046-1.319 3.313-2.941 3.313-1.623 0-2.941-1.267-2.941-3.313 0-2.047 1.318-3.215 2.941-3.215 1.622 0 2.941 1.168 2.941 3.215zm-5.781 10.329v-5.652c.609.779 1.725 1.461 3.347 1.461 3.347 0 5.477-2.631 5.477-6.138 0-3.411-1.927-6.043-5.375-6.043-1.724 0-3.043.781-3.55 1.657V8.822h-3.042v16.177h3.143zM40.821 14.67c0 2.046-1.319 3.313-2.942 3.313-1.622 0-2.94-1.267-2.94-3.313 0-2.047 1.318-3.215 2.941-3.215 1.622 0 2.94 1.168 2.94 3.215h.001zm-5.782 10.329v-5.652c.609.779 1.724 1.461 3.347 1.461 3.346 0 5.476-2.631 5.476-6.138.001-3.411-1.926-6.043-5.374-6.043-1.724 0-3.042.781-3.549 1.657V8.822h-3.043v16.177h3.144-.001zM9.723 7.758l-.786-2.114-5.604 14.185H-.01l6.489-15.09-2.163 1.107-1.278-2.717L9.723.011l.885 2.415 1.672 4.426c0-.101-2.557.904-2.557.904v.002zm7.472 12.071h-3.244l-1.376-3.923H6.086l1.277-3.019h4.129l-1.474-4.023 2.655-.905 4.522 11.87z"/>
</svg>
