<svg xmlns="http://www.w3.org/2000/svg" width="77" height="19">
    <path fill="#5D4F65" fill-rule="evenodd" d="M76.31 6.187c-.994 0-2.584.306-3.28 1.931V6.289h-2.984v11.995h3.083v-5.488c0-2.644 1.391-3.356 2.983-3.356.298 0 .596 0 .895.101V6.289c-.199-.102-.398-.102-.697-.102zm-16.108 4.676c.1-1.322 1.194-2.44 2.585-2.338 1.79 0 2.486 1.22 2.586 2.338h-5.171zm2.487-4.981c-2.984 0-5.668 2.542-5.668 6.302 0 4.067 2.784 6.405 5.966 6.405 2.784 0 4.673-1.729 5.27-3.862l-2.586-.815c-.398 1.12-1.193 1.831-2.585 1.831-1.592 0-2.784-1.118-2.884-2.745h8.254v-1.017c-.1-3.761-2.188-6.099-5.767-6.099zM53.938 2.63l-4.773 4.878v1.627h1.691v5.592c0 2.338 1.392 3.761 3.679 3.761.895 0 1.492-.203 1.789-.305V15.54c-.198 0-.596.102-.993.102-.895 0-1.393-.305-1.393-1.423V9.135h2.287V6.289h-2.287V2.63zm-9.147 8.335l-1.592-.407c-.596-.101-1.093-.508-1.093-1.118 0-.712.696-1.22 1.492-1.22 1.292 0 1.789.915 1.889 1.627l2.585-.61c-.1-1.322-1.193-3.457-4.474-3.457-2.486 0-4.276 1.83-4.276 3.965 0 1.728.994 3.051 3.281 3.559l1.492.405c.895.203 1.193.61 1.193 1.221 0 .61-.497 1.22-1.492 1.22-1.391 0-1.988-.915-2.087-1.831l-2.685.611c.099 1.321 1.292 3.76 4.772 3.76 2.983 0 4.475-2.033 4.475-3.963 0-1.831-1.194-3.254-3.48-3.762zM32.262 15.64c-1.492 0-2.883-1.219-2.883-3.456 0-2.236 1.391-3.456 2.883-3.456s2.884 1.118 2.884 3.456-1.392 3.456-2.884 3.456zm0-9.758c-3.48 0-6.065 2.642-6.065 6.404 0 3.659 2.585 6.404 6.065 6.404 3.48 0 6.065-2.643 6.065-6.404-.099-3.762-2.684-6.404-6.065-6.404zM19.236 15.64c-1.491 0-2.883-1.219-2.883-3.456 0-2.236 1.392-3.456 2.883-3.456 1.492 0 2.884 1.118 2.884 3.456s-1.292 3.456-2.884 3.456zm0-9.758c-3.48 0-6.065 2.642-6.065 6.404 0 3.659 2.585 6.404 6.065 6.404 3.481 0 6.066-2.643 6.066-6.404 0-3.762-2.585-6.404-6.065-6.404h-.001zM6.41 15.64c-1.592 0-2.884-1.219-2.884-3.456 0-2.236 1.293-3.355 2.884-3.355s2.883 1.221 2.883 3.355C9.193 14.421 8 15.64 6.41 15.64zm.597-9.758c-1.691 0-2.984.813-3.481 1.626V.596H.444v17.688h2.983V16.86c.596 1.017 1.79 1.729 3.381 1.729 3.281 0 5.469-2.744 5.469-6.405.099-3.557-1.89-6.302-5.27-6.302z"/>
</svg>
