<svg xmlns="http://www.w3.org/2000/svg" width="288" height="275">
    <path fill="#FFF" fill-rule="evenodd" d="M279.216 51.62c-5.85 5.791-13.536 8.684-21.216 8.684-5.778 0-11.55-1.639-16.542-4.906l-75.87 75.111c5.256 6.943 8.412 15.527 8.412 24.853 0 20.938-15.726 38.259-36.096 41.116.018.162.096.303.096.463v30.793c6.966 2.46 12 8.993 12 16.727 0 9.825-8.076 17.821-18 17.821s-18-7.996-18-17.821c0-7.734 5.034-14.267 12-16.727v-30.793c0-.16.078-.303.096-.463-18.402-2.577-32.97-16.976-35.616-35.176H47.148c-2.682 10.223-12 17.819-23.148 17.819-13.236 0-24-10.656-24-23.759 0-13.104 10.764-23.76 24-23.76 11.148 0 20.466 7.596 23.148 17.82H90.48c2.928-20.113 20.406-35.64 41.52-35.64 9.414 0 18.09 3.125 25.104 8.328l75.87-75.111A29.29 29.29 0 0 1 228 30.622c0-7.936 3.12-15.39 8.79-20.998 11.694-11.583 30.732-11.571 42.426 0C284.88 15.232 288 22.687 288 30.622c0 7.937-3.12 15.391-8.784 20.998zM24 143.481c-6.618 0-12 5.328-12 11.881 0 6.552 5.382 11.88 12 11.88s12-5.328 12-11.88c0-6.553-5.382-11.881-12-11.881zm102 100.98c0 3.278 2.694 5.941 6 5.941s6-2.663 6-5.941-2.694-5.94-6-5.94-6 2.662-6 5.94zm6-118.799c-16.542 0-30 13.323-30 29.7 0 16.375 13.458 29.699 30 29.699s30-13.324 30-29.699c0-16.377-13.458-29.7-30-29.7zM270.732 18.023c-3.51-3.474-8.124-5.209-12.732-5.209-4.614 0-9.222 1.735-12.732 5.211-3.396 3.361-5.268 7.834-5.268 12.597s1.872 9.237 5.274 12.598c7.02 6.95 18.438 6.95 25.458 0 3.396-3.361 5.268-7.833 5.268-12.598 0-4.763-1.872-9.236-5.268-12.599zM138 59.228v36.733c0 3.286-2.688 5.94-6 5.94s-6-2.654-6-5.94V59.228c-6.966-2.457-12-8.992-12-16.726 0-9.824 8.076-17.819 18-17.819s18 7.995 18 17.819c0 7.734-5.034 14.269-12 16.726zm-6-22.665c-3.306 0-6 2.661-6 5.94 0 3.278 2.694 5.94 6 5.94s6-2.662 6-5.94c0-3.279-2.694-5.94-6-5.94zm46.242 156.18l37.644 37.267c3.57-2.091 7.674-3.368 12.114-3.368 13.236 0 24 10.656 24 23.76 0 13.103-10.764 23.76-24 23.76s-24-10.657-24-23.76c0-4.396 1.29-8.458 3.402-11.993l-37.644-37.267a5.891 5.891 0 0 1 0-8.399 6.033 6.033 0 0 1 8.484 0zM228 262.282c6.618 0 12-5.329 12-11.88 0-6.552-5.382-11.881-12-11.881s-12 5.329-12 11.881c0 6.551 5.382 11.88 12 11.88z" opacity=".051"/>
</svg>
