<svg xmlns="http://www.w3.org/2000/svg" width="47" height="27">
    <path fill="#5D4F65" fill-rule="evenodd" d="M22.534 26.466h2.752s.831-.092 1.256-.548c.391-.419.378-1.205.378-1.205s-.054-3.684 1.66-4.226c1.69-.534 3.86 3.56 6.16 5.134 1.739 1.191 3.06.931 3.06.931l6.15-.086s3.217-.199 1.692-2.72c-.125-.207-.889-1.866-4.573-5.276-3.856-3.569-3.339-2.992 1.305-9.166 2.829-3.76 3.96-6.055 3.607-7.038-.337-.936-2.418-.689-2.418-.689l-6.924.043s-.513-.07-.894.156c-.372.223-.611.741-.611.741s-1.096 2.91-2.557 5.385c-3.083 5.22-4.317 5.497-4.82 5.172-1.173-.756-.88-3.035-.88-4.654 0-5.061.77-7.17-1.499-7.716-.752-.182-1.306-.301-3.232-.321-2.47-.025-4.561.008-5.745.587-.788.384-1.396 1.241-1.025 1.291.457.06 1.494.278 2.043 1.024.71.963.685 3.125.685 3.125s.408 5.955-.952 6.695c-.933.507-2.214-.528-4.963-5.265-1.408-2.427-2.471-5.108-2.471-5.108s-.205-.501-.571-.77c-.444-.325-1.064-.428-1.064-.428l-6.58.043s-.987.027-1.35.457c-.323.38-.026 1.167-.026 1.167S5.278 15.22 11.111 21.277c5.35 5.553 11.423 5.189 11.423 5.189z"/>
</svg>
