<?xml version="1.0" encoding="utf-8"?><svg width="1140" height="800" viewBox="0 0 1140 800" xmlns="http://www.w3.org/2000/svg" xmlns:xlink="http://www.w3.org/1999/xlink"><svg width="392.2" height="400" viewBox="0 0 402 410" id="a" xmlns="http://www.w3.org/2000/svg"><path fill="#F9FAFB" fill-rule="evenodd" d="M.818 409.25H107.02l26.4-82.201h133.201l26.401 82.201h108.001L257.021.046H155.62L.818 409.25zM184.42 168.647c6.6-19.8 9.601-32.4 14.401-50.4h3c4.2 17.4 6 26.4 13.8 49.8l28.2 87.601H156.22l28.2-87.001z"/></svg><svg viewBox="0 0 24 24" width="24" height="24" id="android" x="794" y="465" xmlns="http://www.w3.org/2000/svg"><path d="M11.1 18.4v2.2c0 .7-.6 1.3-1.3 1.3s-1.3-.6-1.3-1.3v-2.2h-1c-.5 0-.9-.4-.9-.9v-9h10.8v9c0 .5-.4.9-.9.9h-.9v2.2c0 .7-.6 1.3-1.3 1.3s-1.3-.6-1.3-1.3v-2.2h-1.9zM14.7 4c1.3.8 2.3 2.1 2.5 3.7H6.7c.2-1.6 1.2-3 2.5-3.7L8 2.6l.7-.6L10 3.5c.6-.2 1.3-.4 2-.4s1.3.1 2 .4L15.2 2l.7.6L14.7 4zm4.9 4.6c.7 0 1.3.6 1.3 1.3v4.5c0 .7-.6 1.3-1.3 1.3-.7 0-1.3-.6-1.3-1.3V9.9c-.1-.7.5-1.3 1.3-1.3zm-15.3 0c.7 0 1.3.6 1.3 1.3v4.5c0 .7-.6 1.3-1.3 1.3S3 15.1 3 14.4V9.9c0-.7.6-1.3 1.3-1.3z"/></svg><svg viewBox="0 0 24 24" width="24" height="24" id="apple" x="1052" y="421" xmlns="http://www.w3.org/2000/svg"><path d="M19.5 17.6c-.3.7-.7 1.3-1.1 1.9-.6.8-1 1.4-1.4 1.7-.6.5-1.1.8-1.8.8-.5 0-1-.1-1.6-.4-.6-.3-1.2-.4-1.8-.4-.6 0-1.2.1-1.8.4-.6.2-1.2.4-1.6.4-.6 0-1.2-.2-1.8-.8-.4-.3-.9-.9-1.4-1.7-.6-.9-1.1-1.9-1.5-3-.5-1.3-.7-2.5-.7-3.7 0-1.3.3-2.5.9-3.5.5-.8 1.1-1.4 1.8-1.8.8-.5 1.6-.7 2.5-.7.5 0 1.1.1 1.9.4.8.3 1.3.4 1.5.4.2 0 .7-.2 1.7-.5.9-.3 1.7-.5 2.3-.4 1.7.1 2.9.8 3.8 2-1.5.9-2.2 2.2-2.2 3.8 0 1.3.5 2.3 1.4 3.2.4.4.9.7 1.4.9-.3.4-.4.7-.5 1zM15.6 2.4c0 1-.4 1.9-1.1 2.8-.9 1-1.9 1.6-3.1 1.5v-.4c0-1 .4-2 1.2-2.8.4-.4.8-.8 1.4-1 .6-.3 1.1-.5 1.6-.5v.4z"/></svg><svg width="8" height="14" viewBox="0 0 8 14" id="arrow-right" x="869" y="465" xmlns="http://www.w3.org/2000/svg"><path fill="#FFF" fill-rule="evenodd" d="M7.681 7.73l-5.95 5.949a.999.999 0 1 1-1.414-1.414l5.267-5.267L.317 1.731A1 1 0 1 1 1.731.316l5.95 5.95a.994.994 0 0 1 .287.733.99.99 0 0 1-.287.731z"/></svg><svg width="79" height="79" viewBox="0 0 79 79" id="circle" x="777" y="577" xmlns="http://www.w3.org/2000/svg"><path fill="none" stroke="#64556D" stroke-dasharray="24, 8, 46, 16, 4, 4" stroke-linecap="round" stroke-linejoin="round" stroke-width="2" d="M39 1c20.987 0 38 17.013 38 38S59.987 77 39 77 1 59.987 1 39 18.013 1 39 1z"/></svg><svg width="400" height="400" viewBox="0 0 979.5 979.5" id="circle-big" x="739.4" xmlns="http://www.w3.org/2000/svg"><path fill="none" stroke="#E25695" stroke-dasharray="21, 129, 9, 162, 129, 12" stroke-linecap="round" stroke-width="3" d="M939.236 304.501c102.22 248.133-16.237 531.893-264.581 633.794-248.344 101.902-532.534-16.644-634.753-264.778-102.22-248.133 16.237-531.893 264.581-633.794C552.828-62.178 837.017 56.367 939.236 304.501z"/></svg><svg width="400" height="400" viewBox="0 0 979.5 979.5" id="circle-biggest" y="400" xmlns="http://www.w3.org/2000/svg"><path fill="none" stroke="#E25695" stroke-dasharray="21, 129, 9, 162, 129, 12" stroke-linecap="round" stroke-width="3" d="M939.236 304.501c102.22 248.133-16.237 531.893-264.581 633.794-248.344 101.902-532.534-16.644-634.753-264.778-102.22-248.133 16.237-531.893 264.581-633.794C552.828-62.178 837.017 56.367 939.236 304.501z"/></svg><svg width="10" height="10" viewBox="0 0 10 10" id="circle-line-end" x="1124" y="435" xmlns="http://www.w3.org/2000/svg"><path fill="#E25695" fill-rule="evenodd" d="M5 10A5 5 0 1 1 5.001-.001 5 5 0 0 1 5 10zm0-8a3 3 0 1 0 0 6 3 3 0 0 0 0-6z"/></svg><svg width="11" height="11" viewBox="0 0 11 11" id="drop" x="1070" y="400" xmlns="http://www.w3.org/2000/svg"><path fill="#E25695" fill-rule="evenodd" d="M10.017 2.004v7.414a.997.997 0 0 1-1 1 .998.998 0 0 1-1-1V2.97H1.569a1 1 0 0 1-.001-2h7.414a.986.986 0 0 1 .721.314.985.985 0 0 1 .314.72z"/></svg><svg width="17" height="29" viewBox="0 0 17 29" id="fb" x="1089" y="500" xmlns="http://www.w3.org/2000/svg"><path fill="#5D4F65" fill-rule="evenodd" d="M16.997 6.132h-4.223c-.913 0-1.656.739-1.656 1.647v2.584h5.879l-.924 5.873h-4.955v12.759H4.957V16.236H.003v-5.873h4.954V7.779c0-4.287 3.507-7.775 7.817-7.775h4.223v6.128z"/></svg><svg width="36" height="26" viewBox="0 0 36 26" id="free" x="1016" y="421" xmlns="http://www.w3.org/2000/svg"><path fill="#FFF" fill-rule="evenodd" d="M32.398 24.109c-.863.621-4.276 1.446-14.406 1.446-10.861 0-13.461-.946-13.977-1.256-2.683-1.612-2.999-9.127-3.032-11.085.024-1.482.285-9.794 3.034-11.445C4.534 1.457 7.143.505 17.992.505c10.123 0 13.539.83 14.406 1.454 2.408 1.735 2.613 9.276 2.619 11.23-.007 2.43-.276 9.234-2.619 10.92zM31.23 3.581c-.351-.251-3.358-1.076-13.238-1.076-9.55 0-12.564.748-12.944.978-.954.572-1.986 5.013-2.065 9.726.08 4.724 1.098 8.796 2.063 9.375.379.229 3.385.971 12.946.971 9.888 0 12.889-.818 13.238-1.069.85-.612 1.773-4.468 1.787-9.291-.014-4.748-.931-8.996-1.787-9.614zm-6.494 10.517c0 .726.616 1.352 1.364 1.352.484 0 .825-.208 1.057-.549h1.441c-.341.89-1.122 1.661-2.509 1.661-1.573 0-2.805-1.144-2.805-2.861 0-1.507.99-2.772 2.706-2.772 1.739 0 2.685 1.298 2.685 2.772 0 .121 0 .253-.022.397h-3.917zm1.243-2.135c-.726 0-1.177.539-1.232 1.122h2.464c-.065-.616-.539-1.122-1.232-1.122zm-7.326 2.135c0 .726.616 1.352 1.364 1.352.484 0 .825-.208 1.057-.549h1.441c-.341.89-1.122 1.661-2.509 1.661-1.573 0-2.805-1.144-2.805-2.861 0-1.507.99-2.772 2.706-2.772 1.739 0 2.685 1.298 2.685 2.772 0 .121 0 .253-.022.397h-3.917zm1.243-2.135c-.726 0-1.177.539-1.232 1.122h2.465c-.066-.616-.54-1.122-1.233-1.122zm-5.071 1.848v2.564H13.34v-5.27h1.452v.814h.033c.286-.517.836-.968 1.541-.968.209 0 .341.011.484.044v1.386a3.827 3.827 0 0 0-.705-.066c-.88 0-1.32.55-1.32 1.496zM9.446 12.04h2.806v1.298H9.446v3.037H7.873V8.871h4.489v1.365H9.446v1.804z"/></svg><svg width="19" height="17" viewBox="0 0 19 17" id="heart" x="818" y="465" xmlns="http://www.w3.org/2000/svg"><path fill="#E25695" fill-rule="evenodd" d="M1.622 1.631c-2.172 2.194-2.172 5.751 0 7.943l6.991 7.061a1.228 1.228 0 0 0 1.748 0l6.992-7.061c2.172-2.192 2.172-5.749 0-7.943a5.525 5.525 0 0 0-7.866 0 5.524 5.524 0 0 0-7.865 0z"/></svg><svg width="48" height="47" viewBox="0 0 48 47" id="icon-1" x="948" y="577" xmlns="http://www.w3.org/2000/svg"><path fill="#FFF" fill-rule="evenodd" d="M46.536 9.277A5.013 5.013 0 0 1 43 10.725a5.022 5.022 0 0 1-2.757-.819L27.598 22.425A6.84 6.84 0 0 1 29 26.568c0 3.489-2.621 6.376-6.016 6.852.003.027.016.051.016.077v5.133c1.161.41 2 1.499 2 2.787 0 1.638-1.346 2.97-3 2.97s-3-1.332-3-2.97c0-1.288.839-2.377 2-2.787v-5.133c0-.026.013-.05.016-.077-3.067-.43-5.495-2.829-5.936-5.863H7.858A3.988 3.988 0 0 1 4 30.527c-2.206 0-4-1.776-4-3.959 0-2.185 1.794-3.961 4-3.961a3.988 3.988 0 0 1 3.858 2.97h7.222c.488-3.352 3.401-5.94 6.92-5.94 1.569 0 3.015.521 4.184 1.388L38.829 8.507A4.884 4.884 0 0 1 38 5.777c0-1.322.52-2.565 1.465-3.499 1.949-1.931 5.122-1.929 7.071 0A4.89 4.89 0 0 1 48 5.777c0 1.323-.52 2.565-1.464 3.5zM4 24.588c-1.103 0-2 .887-2 1.98 0 1.092.897 1.98 2 1.98s2-.888 2-1.98c0-1.093-.897-1.98-2-1.98zm17 16.829c0 .547.449.991 1 .991.551 0 1-.444 1-.991a.996.996 0 0 0-1-.99c-.551 0-1 .444-1 .99zm1-19.8c-2.757 0-5 2.221-5 4.951 0 2.729 2.243 4.95 5 4.95s5-2.221 5-4.95c0-2.73-2.243-4.951-5-4.951zM45.122 3.678A3.008 3.008 0 0 0 43 2.81c-.769 0-1.537.289-2.122.868A2.934 2.934 0 0 0 40 5.777c0 .795.312 1.54.879 2.1a3.024 3.024 0 0 0 4.243 0c.566-.56.878-1.305.878-2.1 0-.793-.312-1.539-.878-2.099zM23 10.546v6.122c0 .547-.448.99-1 .99s-1-.443-1-.99v-6.122c-1.161-.41-2-1.5-2-2.789 0-1.637 1.346-2.969 3-2.969s3 1.332 3 2.969c0 1.289-.839 2.379-2 2.789zm-1-3.778c-.551 0-1 .443-1 .989 0 .547.449.99 1 .99.551 0 1-.443 1-.99a.996.996 0 0 0-1-.989zm7.707 26.03l6.274 6.211A3.972 3.972 0 0 1 38 38.447c2.206 0 4 1.777 4 3.961 0 2.183-1.794 3.959-4 3.959s-4-1.776-4-3.959c0-.733.215-1.41.567-1.999l-6.274-6.212a.98.98 0 0 1 0-1.399 1.004 1.004 0 0 1 1.414 0zM38 44.387c1.103 0 2-.888 2-1.979a1.993 1.993 0 0 0-2-1.981c-1.103 0-2 .889-2 1.981 0 1.091.897 1.979 2 1.979z"/></svg><svg width="44" height="48" viewBox="0 0 44 48" id="icon-2" x="856" y="577" xmlns="http://www.w3.org/2000/svg"><path fill="#8549B0" fill-rule="evenodd" d="M41 40H28v3.599l2.7 2.7c.4.4.4 1 0 1.4-.2.2-.45.3-.7.3-.25 0-.5-.1-.7-.3l-3-3c-.2-.2-.3-.449-.3-.7V40h-8v3.999c0 .251-.1.5-.3.7l-1.3 1.3H25c.55 0 1 .451 1 1 0 .55-.45 1-1 1H14c-.4 0-.75-.25-.9-.6-.15-.4-.1-.8.2-1.1l2.7-2.7V40H3c-1.65 0-3-1.351-3-3V10.999c0-1.649 1.35-3 3-3h9c.55 0 1 .451 1 1 0 .551-.45 1-1 1H3c-.55 0-1 .451-1 1V37c0 .549.45 1 1 1h38c.6 0 1-.351 1-.501V36c0-.551.45-1 1-1s1 .449 1 1v1.499C44 38.9 42.65 40 41 40zm2-7.001H5c-.55 0-1-.45-1-1s.45-1 1-1h37v-20c0-.549-.45-1-1-1h-9c-.55 0-1-.449-1-1 0-.549.45-1 1-1h9c1.65 0 3 1.351 3 3v21c0 .55-.45 1-1 1zm-19-20v7c0 .55-.45 1-1 1s-1-.45-1-1v-7c0-.549.45-1 1-1s1 .451 1 1zm3-1.649v14.649c0 .35-.15.651-.45.851-.2.1-.35.149-.55.149-.15 0-.3-.049-.45-.1l-8-4c-.35-.15-.55-.5-.55-.9v-7c0-.549.45-1 1-1s1 .451 1 1v6.4l6 3v-13.4c0-.25.1-.45.2-.6L31.95 2H12.1l6.65 8.35c.35.449.3 1.049-.15 1.399-.45.35-1.05.3-1.4-.15l-8-10C9 1.3 8.95.9 9.1.549 9.25.2 9.6 0 10 0h24c.4 0 .75.2.9.549.2.351.15.751-.1 1.05L27 11.35z"/></svg><svg width="49" height="42" viewBox="0 0 49 42" id="icon-3" x="992" y="500" xmlns="http://www.w3.org/2000/svg"><path fill="#8549B0" fill-rule="evenodd" d="M27.976 15.626c-.55 0-1-.449-1-.998 0-.55.45-.999 1-.999 4.05 0 7.35 3.296 7.35 7.341 0 4.046-3.3 7.342-7.35 7.342-.55 0-1-.449-1-.999s.45-.999 1-.999c2.95 0 5.35-2.397 5.35-5.344 0-2.947-2.4-5.344-5.35-5.344zm19.2 8.64l-3.75.849c-.2.051-.5.3-.55.5l-1.15 2.747c-.1.249-.1.649 0 .798l2.05 3.247c.55.849.4 2.097-.3 2.797l-1.4 1.397c-.7.7-1.95.85-2.8.3l-3.25-2.047c-.2-.1-.6-.15-.75-.05l-2.75 1.149c-.25.05-.5.35-.55.548l-.85 3.747c-.25.999-1.2 1.747-2.2 1.747h-1c-.55 0-1-.449-1-.998 0-.549.45-.999 1-.999h1c.1 0 .25-.1.25-.2l.85-3.745c.2-.849 1-1.699 1.85-1.998l2.6-1.098c.75-.4 1.9-.35 2.65.149l3.25 2.048c.05.05.25 0 .3-.05l1.4-1.398c.05-.05.1-.25.05-.3l-2.05-3.246c-.45-.8-.5-1.948-.1-2.747l1.1-2.547c.25-.8 1.1-1.549 2-1.748l3.75-.849c.1-.05.2-.15.2-.25v-1.998c0-.099-.1-.249-.2-.249l-3.75-.849c-.85-.2-1.7-1-2-1.848l-1.1-2.597c-.4-.749-.35-1.899.15-2.647l2.05-3.246c.05-.05 0-.25-.05-.3l-1.4-1.398c-.05-.05-.25-.1-.3-.05l-3.25 2.047c-.8.45-1.95.5-2.75.1l-2.6-1.049c-.8-.249-1.55-1.098-1.75-1.997l-.85-3.746c-.05-.1-.15-.2-.25-.2h-1c-.55 0-1-.449-1-.999 0-.549.45-.998 1-.998h1c1 0 1.95.749 2.15 1.748l.85 3.745c.05.2.3.5.5.55l2.8 1.149c.25.099.65.099.8 0l3.25-2.049c.85-.549 2.1-.399 2.8.3l1.4 1.399c.7.698.85 1.947.3 2.797l-2.05 3.245c-.1.2-.15.6-.05.75l1.15 2.746c.1.251.4.5.6.55l3.75.849a2.27 2.27 0 0 1 1.7 2.298v1.997c0 .999-.75 1.997-1.75 2.197zm-23.2 17.68h-22c-.55 0-1-.449-1-.999V4.989c0-2.747 2.25-4.994 5-4.994h18c.55 0 1 .449 1 .998 0 .55-.45.999-1 .999h-18c-1.65 0-3 1.349-3 2.997v34.959h21c.55 0 1 .45 1 .999 0 .55-.45.999-1 .999zm-4-5.993h4c.55 0 1 .45 1 .998 0 .55-.45 1-1 1h-4c-1.65 0-3-1.35-3-2.997V29.96a3.008 3.008 0 0 1 3-2.997h4c.55 0 1 .45 1 1 0 .548-.45.998-1 .998h-4c-.55 0-1 .45-1 .999v4.994c0 .549.45.999 1 .999zm0-12.985h4c.55 0 1 .449 1 .999 0 .549-.45.999-1 .999h-4c-1.65 0-3-1.349-3-2.997v-6.991a3.007 3.007 0 0 1 3-2.997h4c.55 0 1 .449 1 .999 0 .549-.45.998-1 .998h-4c-.55 0-1 .45-1 1v6.991c0 .549.45.999 1 .999zm-12 12.985h6c.55 0 1 .45 1 .998 0 .55-.45 1-1 1h-6c-1.65 0-3-1.35-3-2.997V14.978a3.007 3.007 0 0 1 3-2.997h4c1.65 0 3 1.348 3 2.997v17.979c0 .549-.45.998-1 .998s-1-.449-1-.998V14.978c0-.55-.45-1-1-1h-4c-.55 0-1 .45-1 1v19.976c0 .549.45.999 1 .999zm-1-30.964a1 1 0 1 1 1.999.001 1 1 0 0 1-1.999-.001zm4 0a1 1 0 1 1 1.999.001 1 1 0 0 1-1.999-.001zm4 0a1 1 0 1 1 1.999.001 1 1 0 0 1-1.999-.001zm10 3.995c0 .55-.45.999-1 .999h-18c-.55 0-1-.449-1-.999 0-.549.45-.999 1-.999h18c.55 0 1 .45 1 .999z"/></svg><svg width="48" height="48" viewBox="0 0 48 48" id="icon-4" x="900" y="577" xmlns="http://www.w3.org/2000/svg"><path fill="#8549B0" fill-rule="evenodd" d="M30.257.823a1 1 0 1 0-.52 1.932 21.856 21.856 0 0 1 9.088 5.006l-5.668 5.668A13.927 13.927 0 0 0 25 10.036V.999a1 1 0 0 0-1-1c-13.233 0-24 10.767-24 24s10.767 24 24 24 24-10.767 24-24C48 13.167 40.704 3.637 30.257.823zM2 23.999C2 12.204 11.332 2.546 23 2.021v8.978a1 1 0 0 0 1 1c6.617 0 12 5.383 12 12s-5.383 12-12 12-12-5.383-12-12c0-4.861 2.899-9.21 7.385-11.081a1 1 0 1 0-.77-1.846A13.97 13.97 0 0 0 10 23.999c0 7.382 5.747 13.433 13 13.949v8.025C11.332 45.448 2 35.795 2 23.999zm23 21.975v-8.025c7.253-.517 13-6.568 13-13.95 0-3.5-1.302-6.695-3.433-9.153l5.676-5.676A22.012 22.012 0 0 1 46 23.999c0 11.796-9.332 21.449-21 21.975z"/></svg><svg width="48" height="42" viewBox="0 0 48 42" id="icon-5" x="1041" y="500" xmlns="http://www.w3.org/2000/svg"><path fill="#8549B0" fill-rule="evenodd" d="M16 4.999a1 1 0 1 1-2 0 1 1 0 0 1 2 0zm-4 0a1 1 0 1 1-2 0 1 1 0 0 1 2 0zm-4 0a1 1 0 1 1-2 0 1 1 0 0 1 2 0zm30 26h-5c-.55 0-1-.45-1-1 0-1.7-.55-3.299-1.45-4.6l-4.7 5.85c.1.2.15.45.15.701 0 1.1-.9 2-2 2s-2-.9-2-2 .9-2.001 2-2.001c.1 0 .2.05.3.05l4.9-6.1c-1.4-1.15-3.2-1.9-5.2-1.9-4.4 0-8 3.601-8 8 0 .55-.45 1-1 1s-1-.45-1-1c0-5.5 4.5-10 10-10 2.45 0 4.7.9 6.45 2.35l1.9-2.35c-2.25-1.85-5.15-3-8.3-3-7.15 0-13 5.85-13 13 0 .55-.45 1-1 1s-1-.45-1-1c0-8.25 6.75-15 15-15 3.6 0 6.95 1.3 9.55 3.451l1.65-2.051c.35-.4.95-.5 1.4-.15.4.35.5.95.15 1.4l-1.8 2.2c2.5 2.651 4 6.25 4 10.15 0 .55-.45 1-1 1zm-4.25-9.6l-1.9 2.401a10.006 10.006 0 0 1 2.1 5.199h3c-.2-2.9-1.4-5.5-3.2-7.6zM47 41.999c-.55 0-1-.45-1-.999V9.999H5c-.55 0-1-.45-1-1s.45-1 1-1h41v-3c0-1.65-1.35-3-3-3H5c-1.65 0-3 1.35-3 3V40h41c.55 0 1 .449 1 1 0 .549-.45.999-1 .999H1c-.55 0-1-.45-1-.999V4.999c0-2.75 2.25-5 5-5h38c2.75 0 5 2.25 5 5V41c0 .549-.45.999-1 .999z"/></svg><svg viewBox="0 0 24 24" width="24" height="24" id="ios" x="1076" y="421" xmlns="http://www.w3.org/2000/svg"><path d="M19.5 17.6c-.3.7-.7 1.3-1.1 1.9-.6.8-1 1.4-1.4 1.7-.6.5-1.1.8-1.8.8-.5 0-1-.1-1.6-.4-.6-.3-1.2-.4-1.8-.4-.6 0-1.2.1-1.8.4-.6.2-1.2.4-1.6.4-.6 0-1.2-.2-1.8-.8-.4-.3-.9-.9-1.4-1.7-.6-.9-1.1-1.9-1.5-3-.5-1.3-.7-2.5-.7-3.7 0-1.3.3-2.5.9-3.5.5-.8 1.1-1.4 1.8-1.8.8-.5 1.6-.7 2.5-.7.5 0 1.1.1 1.9.4.8.3 1.3.4 1.5.4.2 0 .7-.2 1.7-.5.9-.3 1.7-.5 2.3-.4 1.7.1 2.9.8 3.8 2-1.5.9-2.2 2.2-2.2 3.8 0 1.3.5 2.3 1.4 3.2.4.4.9.7 1.4.9-.3.4-.4.7-.5 1zM15.6 2.4c0 1-.4 1.9-1.1 2.8-.9 1-1.9 1.6-3.1 1.5v-.4c0-1 .4-2 1.2-2.8.4-.4.8-.8 1.4-1 .6-.3 1.1-.5 1.6-.5v.4z"/></svg><svg width="105" height="47" viewBox="0 0 105 47" id="line-2" x="887" y="500" xmlns="http://www.w3.org/2000/svg"><path fill="none" stroke="#E25695" stroke-width="2" d="M3 1s21.39 45.999 99 41"/></svg><svg width="110" height="77" viewBox="0 0 110 77" id="line-3" x="777" y="500" xmlns="http://www.w3.org/2000/svg"><path fill="none" stroke="#E25695" stroke-width="2" d="M1 74S31.39-5.001 108 1.999"/></svg><svg width="89" height="184" viewBox="0 0 89 184" id="line-4" x="688" y="500" xmlns="http://www.w3.org/2000/svg"><path fill="none" stroke="#E25695" stroke-width="2" d="M83 .999s28.39 112-80 181"/></svg><svg width="159" height="65" viewBox="0 0 159 65" id="line-5" x="700" y="400" xmlns="http://www.w3.org/2000/svg"><path fill="none" stroke="#E25695" stroke-width="2" d="M155 20.999s-94.61-61-152 42"/></svg><svg width="110" height="38" viewBox="0 0 110 38" id="line-6" x="859" y="421" xmlns="http://www.w3.org/2000/svg"><path fill="none" stroke="#E25695" stroke-width="2" d="M2.688 27.397s44.65 24.08 103.868-26.334"/></svg><svg width="111" height="21" viewBox="0 0 111 21" id="line1" x="859" y="400" xmlns="http://www.w3.org/2000/svg"><path fill="none" stroke="#E25695" stroke-width="2" d="M1.019 15.871s37.775-33.86 107.146 1.296"/></svg><svg width="347.2" height="400" viewBox="0 0 480 553" id="logo-a" x="392.2" xmlns="http://www.w3.org/2000/svg"><path fill="#F9FAFB" fill-rule="evenodd" d="M271.961 216.156L250.072 157.2 94.055 552.966H.983l180.659-421.03-60.21 30.882-35.591-75.794L271.961.023l24.645 67.368 46.538 123.486c0-2.824-71.183 25.25-71.183 25.25v.029zm208.034 336.81h-90.314l-38.323-109.471H170.699l35.567-84.22h114.959l-41.05-112.251 73.912-25.264 125.908 331.206z"/></svg><svg version="1.1" id="logo-left" x="400" y="400" viewBox="0 0 300 100" xml:space="preserve" width="300" height="100" xmlns="http://www.w3.org/2000/svg"><style>.azst0{fill:#e25695}.azst1{fill:#5d4f65}</style><path class="azst0" d="M67.92 57.63c0 4.99-3.22 8.08-7.17 8.08-3.96 0-7.17-3.09-7.17-8.08s3.21-7.84 7.17-7.84c3.95-.01 7.17 2.84 7.17 7.84zm-14.1 25.19V69.03c1.49 1.9 4.21 3.56 8.16 3.56 8.16 0 13.36-6.42 13.36-14.97 0-8.32-4.7-14.74-13.11-14.74-4.2 0-7.42 1.9-8.66 4.04v-3.57h-7.42V82.8h7.67zm45.76-25.19c0 4.99-3.22 8.08-7.18 8.08-3.95 0-7.17-3.09-7.17-8.08s3.22-7.84 7.17-7.84 7.17 2.84 7.18 7.84zm-14.1 25.19V69.03c1.48 1.9 4.2 3.56 8.16 3.56 8.16 0 13.35-6.42 13.35-14.97 0-8.32-4.7-14.74-13.11-14.74-4.2 0-7.42 1.9-8.66 4.04v-3.57H77.8V82.8h7.68v.02zM23.74 40.77l-1.92-5.15L8.15 70.21H0l15.82-36.8-5.27 2.7-3.12-6.63 16.3-7.6 2.16 5.89 4.08 10.79c0-.24-6.23 2.21-6.23 2.21zm18.22 29.44h-7.91l-3.36-9.57H14.87l3.12-7.36h10.07l-3.6-9.81 6.47-2.21 11.03 28.95z"/><path class="azst1" d="M298.3 41.82c-2.42 0-6.3.75-8 4.71v-4.46h-7.28v29.25h7.52V57.93c0-6.45 3.39-8.18 7.28-8.18.73 0 1.45 0 2.18.25v-7.93c-.48-.25-.97-.25-1.7-.25zm-39.28 11.4c.24-3.22 2.91-5.95 6.3-5.7 4.36 0 6.06 2.98 6.31 5.7h-12.61zm6.06-12.15c-7.28 0-13.82 6.2-13.82 15.37 0 9.92 6.79 15.62 14.55 15.62 6.79 0 11.4-4.22 12.85-9.42l-6.31-1.99c-.97 2.73-2.91 4.46-6.3 4.46-3.88 0-6.79-2.73-7.03-6.69h20.13v-2.48c-.25-9.17-5.34-14.87-14.07-14.87zm-21.34-7.93l-11.64 11.9v3.97h4.12v13.64c0 5.7 3.39 9.17 8.97 9.17 2.18 0 3.64-.5 4.36-.74v-6.44c-.48 0-1.45.25-2.42.25-2.18 0-3.4-.74-3.4-3.47v-12.4h5.58v-6.94h-5.58v-8.94zm-22.3 20.33l-3.88-.99c-1.45-.25-2.67-1.24-2.67-2.73 0-1.73 1.7-2.98 3.64-2.98 3.15 0 4.36 2.23 4.61 3.97l6.3-1.49c-.24-3.22-2.91-8.43-10.91-8.43-6.06 0-10.43 4.46-10.43 9.67 0 4.21 2.42 7.44 8 8.68l3.64.99c2.18.49 2.91 1.49 2.91 2.98s-1.21 2.98-3.64 2.98c-3.39 0-4.85-2.23-5.09-4.46l-6.55 1.49c.24 3.22 3.15 9.17 11.64 9.17 7.27 0 10.91-4.96 10.91-9.67 0-4.47-2.91-7.94-8.48-9.18zm-30.56 11.4c-3.64 0-7.03-2.98-7.03-8.43 0-5.45 3.39-8.43 7.03-8.43s7.03 2.73 7.03 8.43c0 5.71-3.39 8.43-7.03 8.43zm0-23.8c-8.49 0-14.79 6.44-14.79 15.62 0 8.92 6.3 15.62 14.79 15.62s14.79-6.44 14.79-15.62c-.24-9.17-6.54-15.62-14.79-15.62zm-31.76 23.8c-3.64 0-7.03-2.98-7.03-8.43 0-5.45 3.39-8.43 7.03-8.43s7.03 2.73 7.03 8.43c0 5.71-3.15 8.43-7.03 8.43zm0-23.8c-8.49 0-14.79 6.44-14.79 15.62 0 8.92 6.3 15.62 14.79 15.62 8.49 0 14.79-6.44 14.79-15.62 0-9.17-6.31-15.62-14.79-15.62zm-31.28 23.8c-3.88 0-7.03-2.98-7.03-8.43 0-5.45 3.15-8.18 7.03-8.18 3.88 0 7.03 2.98 7.03 8.18-.25 5.46-3.15 8.43-7.03 8.43zm1.45-23.8c-4.12 0-7.28 1.98-8.49 3.97V28.18h-7.52v43.13h7.28v-3.47c1.45 2.48 4.36 4.22 8.24 4.22 8 0 13.34-6.69 13.34-15.62.24-8.67-4.61-15.37-12.85-15.37z"/></svg><svg width="77" height="19" viewBox="0 0 77 19" id="logo-right" x="970" y="400" xmlns="http://www.w3.org/2000/svg"><path fill="#5D4F65" fill-rule="evenodd" d="M76.31 6.187c-.994 0-2.584.306-3.28 1.931V6.289h-2.984v11.995h3.083v-5.488c0-2.644 1.391-3.356 2.983-3.356.298 0 .596 0 .895.101V6.289c-.199-.102-.398-.102-.697-.102zm-16.108 4.676c.1-1.322 1.194-2.44 2.585-2.338 1.79 0 2.486 1.22 2.586 2.338h-5.171zm2.487-4.981c-2.984 0-5.668 2.542-5.668 6.302 0 4.067 2.784 6.405 5.966 6.405 2.784 0 4.673-1.729 5.27-3.862l-2.586-.815c-.398 1.12-1.193 1.831-2.585 1.831-1.592 0-2.784-1.118-2.884-2.745h8.254v-1.017c-.1-3.761-2.188-6.099-5.767-6.099zM53.938 2.63l-4.773 4.878v1.627h1.691v5.592c0 2.338 1.392 3.761 3.679 3.761.895 0 1.492-.203 1.789-.305V15.54c-.198 0-.596.102-.993.102-.895 0-1.393-.305-1.393-1.423V9.135h2.287V6.289h-2.287V2.63zm-9.147 8.335l-1.592-.407c-.596-.101-1.093-.508-1.093-1.118 0-.712.696-1.22 1.492-1.22 1.292 0 1.789.915 1.889 1.627l2.585-.61c-.1-1.322-1.193-3.457-4.474-3.457-2.486 0-4.276 1.83-4.276 3.965 0 1.728.994 3.051 3.281 3.559l1.492.405c.895.203 1.193.61 1.193 1.221 0 .61-.497 1.22-1.492 1.22-1.391 0-1.988-.915-2.087-1.831l-2.685.611c.099 1.321 1.292 3.76 4.772 3.76 2.983 0 4.475-2.033 4.475-3.963 0-1.831-1.194-3.254-3.48-3.762zM32.262 15.64c-1.492 0-2.883-1.219-2.883-3.456 0-2.236 1.391-3.456 2.883-3.456s2.884 1.118 2.884 3.456-1.392 3.456-2.884 3.456zm0-9.758c-3.48 0-6.065 2.642-6.065 6.404 0 3.659 2.585 6.404 6.065 6.404 3.48 0 6.065-2.643 6.065-6.404-.099-3.762-2.684-6.404-6.065-6.404zM19.236 15.64c-1.491 0-2.883-1.219-2.883-3.456 0-2.236 1.392-3.456 2.883-3.456 1.492 0 2.884 1.118 2.884 3.456s-1.292 3.456-2.884 3.456zm0-9.758c-3.48 0-6.065 2.642-6.065 6.404 0 3.659 2.585 6.404 6.065 6.404 3.481 0 6.066-2.643 6.066-6.404 0-3.762-2.585-6.404-6.065-6.404h-.001zM6.41 15.64c-1.592 0-2.884-1.219-2.884-3.456 0-2.236 1.293-3.355 2.884-3.355s2.883 1.221 2.883 3.355C9.193 14.421 8 15.64 6.41 15.64zm.597-9.758c-1.691 0-2.984.813-3.481 1.626V.596H.444v17.688h2.983V16.86c.596 1.017 1.79 1.729 3.381 1.729 3.281 0 5.469-2.744 5.469-6.405.099-3.557-1.89-6.302-5.27-6.302z"/></svg><svg width="33" height="27" viewBox="0 0 33 27" id="m" x="737" y="465" xmlns="http://www.w3.org/2000/svg"><path fill="#5D4F65" fill-rule="evenodd" d="M3.913 5.506a1.335 1.335 0 0 0-.416-1.111L.416.568v-.571h9.567l7.395 16.717L23.88-.003H33v.571l-2.635 2.604a.806.806 0 0 0-.292.762v19.13a.805.805 0 0 0 .292.762l2.573 2.604v.572H19.997v-.572l2.665-2.667c.262-.27.262-.349.262-.762V7.538l-7.41 19.4h-1.001l-8.628-19.4v13.003a1.827 1.827 0 0 0 .478 1.492l3.466 4.334v.571H0v-.571l3.466-4.334c.371-.396.537-.95.447-1.492V5.506z"/></svg><svg width="18" height="14" viewBox="0 0 18 14" id="menu" x="837" y="465" xmlns="http://www.w3.org/2000/svg"><path fill="#5D4F65" fill-rule="evenodd" d="M17 8H1a1 1 0 0 1 0-2h16a1 1 0 0 1 0 2zm0-6H1a1 1 0 0 1 0-2h16a1 1 0 1 1 0 2zM1 11.999h16A1 1 0 0 1 17 14H1a1 1 0 0 1 0-2.001z"/></svg><svg width="7" height="10" fill="none" viewBox="0 0 7 10" id="next" x="1088" y="400" xmlns="http://www.w3.org/2000/svg"><path d="M3.879 5L.586 1.707 2 .293 6.707 5 2 9.707.586 8.293 3.879 5z" fill="#11223E"/></svg><svg width="7" height="10" fill="none" viewBox="0 0 7 10" id="prev" x="1081" y="400" xmlns="http://www.w3.org/2000/svg"><path d="M3.414 5l3.293 3.293-1.414 1.414L.586 5 5.293.293l1.414 1.414L3.414 5z" fill="#11223E"/></svg><svg width="23" height="12" viewBox="0 0 23 12" id="quit" x="1047" y="400" xmlns="http://www.w3.org/2000/svg"><path fill="#5D4F65" fill-rule="evenodd" d="M18.046 11.078a.994.994 0 0 1-1.413 0 .999.999 0 0 1 0-1.414l2.678-2.678H.984a1 1 0 1 1 0-2.002H19.25l-2.617-2.616A.999.999 0 1 1 18.046.954l4.907 5.061-4.907 5.063z"/></svg><svg viewBox="0 0 24 24" width="24" height="24" id="star" x="1100" y="421" xmlns="http://www.w3.org/2000/svg"><path fill="#11223e" opacity=".3" d="M21 10l-6.1-1L12 3 9.1 9 3 10l4.2 4.5L6 21l6-3 6 3-1.2-6.5z"/></svg><svg width="14" height="14" fill="none" viewBox="0 0 14 14" id="star-orange" x="855" y="465" xmlns="http://www.w3.org/2000/svg"><path fill-rule="evenodd" clip-rule="evenodd" d="M7 11.667L2.333 14l.968-5.02L0 5.444l4.714-.812L7 0l2.286 4.632L14 5.444 10.699 8.98l.968 5.02L7 11.667z" fill="#F5A623"/></svg><svg width="288" height="275" viewBox="0 0 288 275" id="start" x="400" y="500" xmlns="http://www.w3.org/2000/svg"><path fill="#FFF" fill-rule="evenodd" d="M279.216 51.62c-5.85 5.791-13.536 8.684-21.216 8.684-5.778 0-11.55-1.639-16.542-4.906l-75.87 75.111c5.256 6.943 8.412 15.527 8.412 24.853 0 20.938-15.726 38.259-36.096 41.116.018.162.096.303.096.463v30.793c6.966 2.46 12 8.993 12 16.727 0 9.825-8.076 17.821-18 17.821s-18-7.996-18-17.821c0-7.734 5.034-14.267 12-16.727v-30.793c0-.16.078-.303.096-.463-18.402-2.577-32.97-16.976-35.616-35.176H47.148c-2.682 10.223-12 17.819-23.148 17.819-13.236 0-24-10.656-24-23.759 0-13.104 10.764-23.76 24-23.76 11.148 0 20.466 7.596 23.148 17.82H90.48c2.928-20.113 20.406-35.64 41.52-35.64 9.414 0 18.09 3.125 25.104 8.328l75.87-75.111A29.29 29.29 0 0 1 228 30.622c0-7.936 3.12-15.39 8.79-20.998 11.694-11.583 30.732-11.571 42.426 0C284.88 15.232 288 22.687 288 30.622c0 7.937-3.12 15.391-8.784 20.998zM24 143.481c-6.618 0-12 5.328-12 11.881 0 6.552 5.382 11.88 12 11.88s12-5.328 12-11.88c0-6.553-5.382-11.881-12-11.881zm102 100.98c0 3.278 2.694 5.941 6 5.941s6-2.663 6-5.941-2.694-5.94-6-5.94-6 2.662-6 5.94zm6-118.799c-16.542 0-30 13.323-30 29.7 0 16.375 13.458 29.699 30 29.699s30-13.324 30-29.699c0-16.377-13.458-29.7-30-29.7zM270.732 18.023c-3.51-3.474-8.124-5.209-12.732-5.209-4.614 0-9.222 1.735-12.732 5.211-3.396 3.361-5.268 7.834-5.268 12.597s1.872 9.237 5.274 12.598c7.02 6.95 18.438 6.95 25.458 0 3.396-3.361 5.268-7.833 5.268-12.598 0-4.763-1.872-9.236-5.268-12.599zM138 59.228v36.733c0 3.286-2.688 5.94-6 5.94s-6-2.654-6-5.94V59.228c-6.966-2.457-12-8.992-12-16.726 0-9.824 8.076-17.819 18-17.819s18 7.995 18 17.819c0 7.734-5.034 14.269-12 16.726zm-6-22.665c-3.306 0-6 2.661-6 5.94 0 3.278 2.694 5.94 6 5.94s6-2.662 6-5.94c0-3.279-2.694-5.94-6-5.94zm46.242 156.18l37.644 37.267c3.57-2.091 7.674-3.368 12.114-3.368 13.236 0 24 10.656 24 23.76 0 13.103-10.764 23.76-24 23.76s-24-10.657-24-23.76c0-4.396 1.29-8.458 3.402-11.993l-37.644-37.267a5.891 5.891 0 0 1 0-8.399 6.033 6.033 0 0 1 8.484 0zM228 262.282c6.618 0 12-5.329 12-11.88 0-6.552-5.382-11.881-12-11.881s-12 5.329-12 11.881c0 6.551 5.382 11.88 12 11.88z" opacity=".051"/></svg><svg width="37" height="31" viewBox="0 0 37 31" id="tg" x="700" y="465" xmlns="http://www.w3.org/2000/svg"><path fill="#5D4F65" fill-rule="evenodd" d="M34.556 1.219L1.387 13.264c-1.814.502-1.756 2.22-.414 2.633l8.31 2.488 3.18 9.35c.387 1.023.703 1.409 1.363 1.418.694.009.959-.233 1.68-.845.844-.76 2.129-1.956 4.159-3.849l8.645 6.125c1.591.842 2.739.406 3.135-1.417l5.42-25.71c.581-2.235-.787-2.901-2.309-2.238zM10.588 17.813L29.483 6.444c.93-.599 1.222.069.802.531L14.604 20.503l-.805 6.753-3.211-9.443z"/></svg><svg version="1.1" id="tinkoff" x="770" y="465" viewBox="0 0 24 24" xml:space="preserve" width="24" height="24" xmlns="http://www.w3.org/2000/svg"><style/><path fill="#FCE527" d="M20 24H4c-2.2 0-4-1.8-4-4V4c0-2.2 1.8-4 4-4h16c2.2 0 4 1.8 4 4v16c0 2.2-1.8 4-4 4z"/><path fill="#FFF" d="M21.8 11.4l.2-.8h-.9c-.1 0-.6 0-1.1-.4h.1c.5 0 1-.3 1.2-.8l.4-.8h-.9s-.3 0-.7-.4c-.3-.3-.6-.4-1-.4-.2 0-.3 0-.4.1v-.2c.1-.8-.4-1.4-.4-1.4l-.6-.8-.4.9s-.1.2-.3.3c0-.3-.2-.6-.5-.9-.5-.6-1.2-.6-1.5-.6h-.3l-.7.1c0-.2.1-.5.3-.7l.4-.7-1.1.1-.3-.7-.7.3L12 3l-.6.6-.7-.3-.3.7-1.1-.1.4.7c.2.2.3.5.3.7l-.7-.1H9c-.3 0-1 .1-1.5.6-.4.3-.5.6-.5.9-.2-.1-.3-.4-.3-.4l-.4-.9-.7.8c-.1.1-.5.7-.4 1.4v.2c0-.1-.2-.1-.3-.1-.4 0-.7.1-1 .4-.4.4-.7.4-.7.4s-.3.1-.9 0l.4.8c.2.4.7.8 1.2.8H4c-.5.4-1 .4-1.1.4H2l.3.8c.1.4.6 1.1 1.4 1.2-.1.4-.3.8-.7 1l-.6.3.3.6c.2.3.7.7 1.3.7h.4c0 .1.1.3.1.4.2.6 0 1 0 1l-.3.7.8.3s.2.1.5.1h.3c.1 0 .2 0 .2-.1.1.2.2.3.3.4.5.5 1.1.7 1.9.7h.6l-1.2.5.9.4c.5.2.9.4 1.3.5l-.1.3.3.1s.6.3 1.7.3h.7c1 0 1.6-.3 1.7-.3l.3-.1-.2-.3c.4-.1.8-.3 1.2-.5l.9-.4-1.2-.5h.6c.8 0 1.5-.2 1.9-.7.1-.1.2-.3.3-.4.1 0 .1 0 .2.1h.8l.7-.2-.3-.7s-.2-.4 0-1c0-.1.1-.3.1-.4h.4c.9 0 1.3-.6 1.3-.7l.3-.6-.6-.3c-.4-.2-.7-.6-.7-1 1.1-.2 1.5-.9 1.7-1.3zM12 5.5c-.7 0-1.2.2-1.3.5l1.3.6 1.3-.6c-.1-.2-.6-.5-1.3-.5m0 13.8c-.4 0-1-.1-1.3-.2l-.3.9c.2.1 1 .2 1.6.2s1.4-.1 1.6-.2l-.3-.9c-.3.2-.9.2-1.3.2"/><path fill="#FFF" d="M14.5 18.4c-.2.1-.8.3-1.1.4l.3.7c.5-.1.9-.3 1.3-.5h-.6l.1-.6zm-5 0l.1.6-.6.2c.3.2.7.3 1.3.5l.3-.7c-.3-.2-.9-.4-1.1-.6M12 4.7c.5 0 1 .1 1.4.3 0-.1.1-.3.1-.4h-.2l-.1-.1-.2-.4-.4.2-.1.1-.1-.1-.4-.5-.4.4-.1.1-.1-.1-.4-.1-.2.4-.1.1h-.2c.1.1.1.3.1.4.4-.2.9-.3 1.4-.3m7.9 4.8h.2c.3 0 .6-.2.7-.4 0 0-.5 0-1.1-.6-.2-.2-.4-.2-.5-.2-.3 0-.4.1-.4.1.6.4.7 1 1.1 1.1m-16 .1h.2c.4-.1.5-.7 1.2-1.1 0 0-.2-.1-.4-.1s-.4 0-.5.2c-.7.5-1.2.5-1.2.5.1.3.4.5.7.5M20.1 12c.8 0 1-.8 1-.8-.1 0-1.2 0-2-1-.5-.6-.9-1.2-1.8-1.4h-.1v-.1c0-.1.1-.2.2-.4 1.1-.7.4-1.7.4-1.7s-.3.8-1 .8H16.5s.2-.6-.3-1.1c-.4-.4-.8-.4-1.1-.4h-.2c.2.2.3.7.1 1.1-.2.3-.9.3-.9.7 0 .2.2.4.5.6.9.6 1.8 1.3 2.2 2.4.5 1.3 0 2.1-.8 2.6 0 0 .2.2.6.2h.2c.7 0 1.1-.3 1.1-.3s-.1.5-.4.9c-.3.4-.8.6-1.5.6 0 0 0 .3.3.6.2.2.7.2.7.2s-.9.2-1 1.4c0 .7-.2.9-.2.9 2 0 2-1.7 2-1.7s.1.5.7.6h.5s-.3-.6 0-1.5c.2-.7.2-1.2.2-1.2s.3.4.9.4c.5 0 .8-.4.8-.4-1.3-.5-1.2-2.4-1.2-2.4s.1.4.4.4m-.4 1.8c-.5-.3-.9-1-1-1.2 0 1.4-.7 2.4-1.5 3.3-.4.5-.6 1-.6 1s.1-.5.4-1c.7-.9 1.5-2 1.5-3.3 0-.9-.2-1.6-.6-2.3.2.6.2 1.4-.5 2.1 0 0 1.4-1.6-.5-3.3-.8-.6-1.6-1-2-1.3 1.6.5 2.3 0 2.3 0-.5.4-1.1.4-1.5.4.1 0 .2.1.3.2 1.3.7 2.5 1.9 2.7 3.5.4 1.5 1 1.9 1 1.9M7.1 15.6s.5 0 .7-.2c.3-.3.3-.6.3-.6-.7 0-1.2-.2-1.5-.6-.4-.4-.4-.9-.4-.9s.4.3 1.1.3h.2c.3 0 .6-.2.6-.2-.8-.5-1.3-1.3-.8-2.6.4-1 1.3-1.8 2.2-2.4.3-.2.5-.4.5-.6 0-.4-.6-.4-.9-.7-.3-.5-.1-1.1.1-1.4H9c-.3 0-.7.1-1.1.4-.5.6-.3 1.1-.3 1.1l-.2.1h-.2c-.7 0-1-.8-1-.8s-.9 1 .3 1.7c.2.1.3.2.2.4v.1h-.1c-.8.3-1.2.8-1.7 1.5-.8 1-1.9 1-2 1 0 0 .2.8 1 .8.3 0 .5-.1.5-.1s.1 1.8-1.2 2.4c0 0 .2.4.8.4.7 0 .9-.4.9-.4s0 .5.2 1.2c.3.9 0 1.5 0 1.5h.5c.6-.1.7-.6.7-.6s0 1.7 2 1.7c0 0-.2-.2-.2-.9-.1-1.4-1-1.6-1-1.6m-.3.3C6 15 5.3 14 5.2 12.6c-.1.2-.4 1-1 1.2 0 0 .7-.4 1-2 .3-1.6 1.5-2.7 2.8-3.5.1-.1.2-.1.3-.2-.4.1-1 .1-1.5-.4 0 0 .8.6 2.3 0-.4.3-1.3.7-2 1.3-1.9 1.7-.5 3.3-.5 3.3-.8-.5-.8-1.3-.6-1.9-.4.6-.6 1.3-.6 2.3 0 1.3.8 2.4 1.5 3.3.4.4.4 1 .4 1s-.1-.6-.5-1.1M10.5 9.3l.1.1s0 .1.1.1l.1.1c.3.5.7.8 1.2.8.4 0 .9-.3 1.2-.8l.1-.1s0-.1.1-.1l.1-.1c.2-.1.4-.3.6-.3H14l-.4-.2-.4-.2-1.2.5-1.1-.6-.4.2-.4.2-.1.1c.2.1.4.2.5.3m1.1 0h.9v.3c-.1-.1-.3-.1-.3-.1v.5s0 .2.1.3h-.4c.1-.1.1-.3.1-.3v-.5s-.2 0-.3.1l-.1-.3zm.3-.6V6.8l-1.2-.4.3 1.8.9.5zm-.2-1.5v.3s-.1 0-.2-.1c-.4-.2-.4-.4-.4-.4l.6.2zm1.3 1l.3-1.8-1.2.4v1.9l.9-.5zm-.6-1l.5-.2s0 .2-.2.4c-.1.1-.2.1-.2.1-.1.1-.1-.3-.1-.3zM10.2 13h.3v-.1-.3s-.1-.1-.1-.2-.1-.1-.2-.1-.2.1-.3.1c0 .4.2.6.3.6m2.7-.9l-.7.7h-1.4v.3l1.7.3c.2-.1.6-.5.8-.6-.1-.2-.1-.4-.1-.6-.2 0-.3-.1-.3-.1"/><path fill="#FFF" d="M13.1 10.4c-.3.3-.6.4-.9.5h-.3-.1v.4c0 .1.2.2.3.3v.1s0 .4.4.5l.2-.2c-.1-.2 0-.4.1-.5 0 0-.1.5.4.7h.1v.1s-.1.5.4.7h.1v.1s-.2.5.3.7h1V13c-.4 0-.5-.3-.6-.5-.2 0-.3-.1-.4-.2-.2-.3 0-.5 0-.6 0 0 0 .3.2.4.1.1.2.1.3.1h.1v.1s0 .4.4.4V11c0-.2.1-.5.2-.8l-2.2.2zm-2.8.7v1.1h.1l.3-1-.1-.3-.3.2zm3.3 4.9c.2 0 .2.7.6.8h.1c.1 0 .1 0 .2-.1 0 0-.2-.2-.3-.4-.2-.2-.3-.5-.6-.5h-.1c-.1-.1-.2-.1-.3-.1-.2 0-.3.1-.4.1l-.8-.1c-.1 0-.2-.1-.2-.1v-.1c0-.5-.4-.8-.6-.8v-.1l-.2.1-.5-.2.3.4-.3.3v.1l.1.1.1-.1h.3c.1 0 .1 0 .1-.1 0 .2-.2.5-.1.8l.1.2-.6-.1-.3.5c-.1.1-.1.3 0 .4l.1.1.2-.2v-.1l.2-.3.7.2v-.1c0-.1.1-.1.2-.1h.6c.2 0 .5 0 .6-.2.2.4.8.4.7.6l-.1.6h.2l.1-.7v-.2s-.2-.1-.2-.3c-.1-.2 0-.3-.1-.5.1.3.1.2.2.2m-2.7-.9V15c.1 0 .1 0 0 .1.1 0 .1 0 0 0"/><path fill="#FFF" d="M10 16.6s.2-.1.2-.2v-.1-.1l.2-.2.4.1s-.1-.1-.1-.2l-.4-.1-.3.3c-.1.1-.1.3 0 .5-.1-.1 0 0 0 0zm2.9 1.1h.2l.2-.6c-.1 0-.4-.2-.5-.2.1.1.2.2.2.3.1-.1-.1.5-.1.5z"/><path fill="#FCE527" d="M15 14H9v2.2c0 .9.7 1.5 1.6 1.5.8 0 1 0 1.3.3.2-.2.4-.3.7-.3l.2-.6-.3-.4h-1.1l-.1.1h-.1l-.6-.1-.1.1.1.1v.1c0 .1-.2.3-.2.3l-.1.1-.1-.2-.1-.1c-.1 0-.1-.1-.1-.3l-.1.1-.1-.1v-.1c-.1-.2 0-.5.2-.6l.5-.2.4.1v-.2l-.2.1-.2-.2s-.1-.1 0-.2l.2-.3-.7-1 .9.4v-.1l.1-.1.1.1.1.1c.2.1.7.4.7.9h-.2.1l.6.1c.1 0 .2-.1.3-.1.1 0 .2 0 .3.1h.1c.3 0 .5.3.7.5 0 0 0 .1.1.1.1.2.3.4.3.4l.1.1-.1.1c-.1.1-.2.2-.3.2h-.1-.1v.1l-.1.6c.7-.2 1.1-.7 1.1-1.4L15 14zm-6-.2h4.6c-.2-.2-.2-.5-.2-.7-.1 0-.1-.1-.2-.1-.2.1-.7.5-.9.6l-1.8-.3h-.2c0 .1-.1.1-.2.1 0 0-.1 0-.1-.1v-.1c-.2-.1-.4-.4-.3-.7h.1-.1s-.1 0-.1-.1 0-.1.1-.1h.3v-1.1l.5-.5.3.6-.3 1.1h.3s.1 0 .1.1 0 .1-.1.1h-.2l.1.1h1.4l.3-.3c-.3-.1-.5-.4-.5-.6-.2-.1-.3-.2-.4-.4-.1-.2 0-.4 0-.5-.2-.1-.4-.2-.6-.4h-2c.1.2.2.5.2.8L9 13.8z"/><path d="M10.9 15c-.1.1 0 .1 0 .1s.1 0 0-.1c.1 0 .1 0 0 0m4.1 4l-.3-.1.1-.3.1-.4s-.6.3-1.5.6c-.2.1-.4.1-.4.1v.3s-.4.1-.9.1-.9-.1-.9-.1v-.3s-.2 0-.4-.1c-.9-.2-1.5-.6-1.5-.6l.1.4.1.3-.4.1-.4.1c.4.2 1 .5 1.6.7l-.1.3s.7.3 1.9.3 1.9-.3 1.9-.3l-.1-.3c.5-.1 1.2-.5 1.6-.7-.1.1-.5-.1-.5-.1zm-5.9.2l.5-.2-.2-.5c.2.1.8.3 1.1.4l-.3.7c-.4-.1-.8-.3-1.1-.4m2.9 1.1c-.6 0-1.4-.1-1.6-.2l.3-.9c.3.1.8.2 1.3.2.4 0 1-.1 1.3-.2l.4.9c-.3.1-1 .2-1.7.2m1.7-.7l-.3-.7c.3-.1.9-.3 1.1-.4l-.1.5.6.2c-.4.1-.8.3-1.3.4M12 4.9c.7 0 1.3.2 1.6.5 0 0 .1-.5.4-1l-.6.1-.3-.6-.6.3-.5-.7-.5.5-.5-.3-.3.6H10c.3.5.4 1 .4 1 .4-.2.9-.4 1.6-.4m-1.4-.3h.1l.1-.1.2-.4.4.2.1.1.1-.1.4-.5.4.4.1.1.1-.1.4-.1.2.4.1.1h.2c-.1.1-.1.3-.1.4-.4-.2-.9-.3-1.4-.3-.5 0-1 .1-1.4.3 0-.1-.1-.3-.1-.4h.1zm9.6 7.6c.9 0 1.2-.9 1.2-1l.1-.3h-.3c-.1 0-1.1 0-1.8-.9v-.1c-.5-.6-.9-1.1-1.7-1.4l.1-.1c.4-.3.6-.6.7-1 .1-.6-.3-1-.3-1.1L18 6l-.1.4s-.3.6-.8.6H17c0-.3 0-.7-.4-1-.4-.5-1-.5-1.3-.5H15l-.4.1.2.3c.2.2.3.7.1.9-.2.1-.3.2-.4.2-.2.1-.6.3-.6.7 0 .3.2.5.6.8 1.1.7 1.8 1.4 2.1 2.3.5 1.2-.1 2-.7 2.3l-.3.2.2.2s.3.3.7.3h.2c.3 0 .5 0 .7-.1 0 .1-.1.2-.2.3-.3.4-.7.6-1.3.6h-.2v.2s0 .4.4.8c0 0 .1.1.2.1-.3.2-.5.6-.6 1.4 0 .6-.2.8-.2.8l-.2.4h.4c.7 0 1.3-.2 1.7-.6.2-.2.3-.5.4-.7.1.1.3.2.5.2h.7l.3-.1-.1-.3s-.2-.5 0-1.3c.1-.3.2-.6.2-.8.2.1.4.2.7.2.7 0 1-.5 1-.5l.1-.2-.2-.1c-.8-.3-1-1.3-1-1.8-.1-.1 0-.1.2-.1-.1 0 0 0 0 0zm.6 2s-.2.4-.8.4c-.7 0-.9-.4-.9-.4s0 .5-.2 1.2c-.3.9 0 1.5 0 1.5h-.5c-.6-.1-.7-.6-.7-.6s0 1.7-2 1.7c0 0 .2-.2.2-.9.1-1.3 1-1.4 1-1.4s-.5 0-.7-.2c-.3-.3-.3-.6-.3-.6.7 0 1.2-.2 1.5-.6.4-.4.4-.9.4-.9s-.4.3-1.1.3h-.2c-.3 0-.6-.2-.6-.2.8-.5 1.3-1.3.8-2.6-.4-1-1.3-1.8-2.2-2.4-.3-.2-.4-.4-.4-.6 0-.4.6-.4.9-.7.3-.3.1-.9-.1-1.2h.2c.3 0 .7.1 1.1.4.5.5.3 1.1.3 1.1H16.8c.7 0 1-.8 1-.8s.8.9-.4 1.7c-.2.1-.3.2-.2.4v.1h.1c.8.2 1.2.8 1.8 1.4.8 1 1.9 1 2 1 0 0-.2.8-1 .8-.3 0-.5-.1-.5-.1s-.1 1.6 1.2 2.2m-2.2-5.6c.3.2.5.4.7.6.2.2.3.4.6.5h.3c.4 0 .7-.2.9-.5l.1-.2h-.3s-.5 0-1-.5c-.2-.2-.4-.3-.7-.3-.3 0-.6.2-.6.2l-.3.2h.3zm.6-.3c.2 0 .4 0 .5.2.6.6 1.1.6 1.1.6-.1.2-.4.4-.7.4h-.2c-.4-.1-.5-.7-1.2-1.1 0 0 .2-.1.5-.1m-.4 3.5c-.2-1.6-1.4-2.8-2.7-3.5-.1-.1-.2-.1-.3-.2.4.1 1 .1 1.5-.4 0 0-.8.6-2.3 0 .4.3 1.3.7 2 1.3 1.9 1.7.5 3.3.5 3.3.7-.7.7-1.5.5-2.1.4.6.6 1.3.6 2.3 0 1.3-.8 2.4-1.5 3.3-.4.4-.4 1-.4 1s.1-.5.6-1c.8-.9 1.5-1.9 1.6-3.3.1.2.4 1 1 1.2-.2.1-.8-.3-1.1-1.9M8.5 17.9s-.1-.2-.2-.8c0-.7-.3-1.1-.6-1.4.1 0 .1-.1.2-.1.4-.3.4-.8.4-.8v-.2h-.2c-.6 0-1-.2-1.3-.6-.1-.1-.1-.2-.2-.3.2 0 .4.1.7.1h.2c.4 0 .7-.3.7-.3l.2-.2-.3-.2c-.6-.4-1.2-1.1-.7-2.3.3-.8 1-1.6 2.1-2.3.4-.2.6-.5.6-.8 0-.4-.3-.6-.6-.7-.1 0-.2-.1-.3-.2-.2-.2 0-.7.1-.9l.2-.3-.3-.1h-.3c-.3 0-.8.1-1.3.5-.4.4-.4.8-.4 1h-.1c-.5 0-.8-.6-.8-.6l-.2-.3-.2.3s-.4.5-.3 1.1c0 .4.3.7.7 1 0 0 .1 0 .1.1-.8.2-1.2.7-1.7 1.3l-.1.1c-.7.9-1.7 1-1.8 1h-.3l.1.3s.3 1 1.2 1H4c0 .5-.2 1.4-1 1.8l-.2.1.2.1s.3.5 1 .5c.3 0 .5-.1.7-.2 0 .2.1.5.2.8.2.7 0 1.3 0 1.3l-.1.3.2.1h.7c.2 0 .4-.1.5-.2.1.2.2.5.4.7.4.4 1 .6 1.7.6h.4c.1 0-.2-.3-.2-.3zm-.2.1c-2 0-2-1.7-2-1.7s-.1.5-.7.6h-.5s.3-.6 0-1.5c-.2-.7-.2-1.2-.2-1.2s-.3.4-.9.4c-.5 0-.8-.4-.8-.4 1.3-.5 1.2-2.4 1.2-2.4s-.2.1-.5.2c-.7 0-1-.8-1-.8.1 0 1.2 0 2-1 .5-.6.9-1.2 1.8-1.4h.1v-.1c0-.1-.1-.2-.2-.4-1.2-.8-.5-1.7-.5-1.7s.3.8 1 .8H7.4s-.2-.6.3-1.1c.6-.5 1-.6 1.3-.6h.2c-.2.4-.4.9-.1 1.3.2.3.9.3.9.7 0 .2-.2.4-.5.6-.9.6-1.8 1.3-2.2 2.4-.5 1.3 0 2.1.8 2.6 0 0-.2.2-.6.2h-.2c-.7 0-1.1-.3-1.1-.3s.1.5.4.9c.3.4.8.6 1.5.6 0 0 0 .3-.3.6-.2.2-.7.2-.7.2s.9.2 1 1.4c.1.9.2 1.1.2 1.1zM3.9 9.8h.3c.2-.1.4-.3.6-.5.1-.3.3-.5.6-.7l.3-.2-.3-.2S5.1 8 4.8 8s-.5.1-.7.4c-.5.5-.9.5-1 .5h-.3l.2.4c.1.3.5.5.9.5m.4-1.3c.2-.2.4-.2.5-.2.2 0 .4.1.4.1-.7.4-.8 1-1.2 1.1h-.2c-.3 0-.6-.2-.7-.4.1.1.6 0 1.2-.6m1.1 4.1c0-.9.2-1.6.6-2.3-.2.6-.2 1.4.5 2.1 0 0-1.4-1.6.5-3.3.8-.6 1.6-1 2-1.3-1.6.5-2.3 0-2.3 0 .5.4 1.1.4 1.5.4 0 0-.1 0-.2.1-1.3.7-2.5 1.9-2.7 3.5-.3 1.6-1 2-1 2 .5-.3.9-1 1-1.2 0 1.4.7 2.3 1.5 3.3.4.5.6 1 .6 1s-.1-.5-.4-1c-.8-.9-1.5-2-1.6-3.3M11.6 9.3v.3c.1-.1.3-.1.3-.1v.5s0 .2-.1.3h.4c-.1-.1-.1-.3-.1-.3v-.5s.2 0 .3.1v-.3h-.8zm-.2-1.9c.1.1.2.1.2.1v-.2l-.5-.3s0 .2.3.4m1.3 0c.2-.2.2-.4.2-.4l-.5.2v.3s.1 0 .3-.1"/><path d="M13.7 6.1c0-.5-.8-.9-1.6-.9-.9 0-1.6.4-1.6.9v.1l.3 2-.3.2-1 .5s-.2.1-.3.2c-.3.3-.4.6-.2.7 0-.3.3-.6.7-.6.3 0 .5.1.7.4 0 0 .1.1.1.2l.1.2H8.4c.2.3.3.7.3 1.1v5.1c0 1.2.9 1.8 2 1.8.8 0 .9 0 1.3.4.4-.4.5-.4 1.3-.4 1 0 2-.6 2-1.8v-5.1c0-.4.1-.7.3-1.1h-2.3l.1-.2c0-.1.1-.1.1-.2.2-.2.4-.4.7-.4.4 0 .6.3.7.6.2-.1.1-.5-.2-.7-.1-.1-.3-.2-.3-.2l-.9-.5-.3-.2.5-2.1c-.1.1 0 0 0 0zm-3 .3l1.2.4v1.9l-.9-.5-.3-1.8zm.3 4c.2.2.4.3.6.4v.5c.1.1.2.3.4.4 0 .2.1.5.5.6l-.3.3h-1.4s-.1 0-.1-.1h.2s.1 0 .1-.1c0 0 0-.1-.1-.1h-.3l.3-1.1-.3-.6-.5.5v1.1h-.3s-.1 0-.1.1c0 0 0 .1.1.1h0c-.1.4.1.6.2.8v.1l.1.1c.1 0 .1 0 .2-.1h.2l1.8.3c.1-.1.7-.5.9-.6 0 0 .1.1.2.1 0 .2-.1.5.2.7H9v-2.6c0-.2-.1-.5-.2-.8H11zm2.2 2.4c-.2.1-.6.5-.8.6l-1.7-.3v-.3h1.4s.5-.4.7-.7c0 .1.1.1.2.2s.1.3.2.5m-2.8-.3c0 .1.1.1.1.2v.4h-.3c-.1 0-.3-.3-.3-.5 0 0 .2-.1.3-.1s.2-.1.2 0m-.1-.3v-1.1l.2-.2.1.3-.3 1c.1 0 0 0 0 0zm2.9 5.5H13l.2-.6c0-.1-.1-.2-.2-.3.1 0 .3.2.5.2-.1.1-.3.7-.3.7m.6-.7l-.1.7h-.2l.1-.6c0-.2-.5-.2-.7-.6-.1.1-.3.2-.6.2h-.6c-.1 0-.1 0-.2.1v.1l-.7-.2-.2.3v.1c0 .1-.2.2-.2.2l-.1-.1c-.1-.1-.1-.3 0-.4l.3-.5.6.1-.1-.2c-.1-.3.1-.6.1-.8l-.1.1h-.2l-.1.1-.1-.1v-.1l.3-.3-.3-.4.5.2.1-.2v.1c.1 0 .6.2.6.8v.1s.1.1.2.1l.7.1c.1 0 .2-.1.4-.1.1 0 .2 0 .3.1h.1c.3 0 .4.3.6.5.1.2.3.4.3.4 0 .1-.1.1-.2.1h-.1c-.3 0-.4-.7-.5-.8h-.1c.1.2 0 .3.1.5.1.1.2.2.2.3-.1-.1-.1 0-.1.1m-3.6-.6c0 .1-.2.2-.2.2v-.1c0-.1 0-.3.1-.4l.4-.2.4.1c0 .1.1.2.1.2l-.4-.1-.2.2c-.2 0-.2 0-.2.1m3.7 1.3l.1-.6V17h.2c.2 0 .3-.1.3-.2l.1-.1-.1-.1s-.2-.3-.3-.4c0 0 0-.1-.1-.1-.1-.2-.3-.5-.7-.5h-.1c-.1 0-.2-.1-.3-.1-.1 0-.3 0-.3.1h-.1l-.6-.1h-.1.1c0-.5-.5-.8-.7-.9 0 0 0-.1-.1-.1l-.1-.1-.1.1-1-.3.6.7-.2.3c-.1.1 0 .2 0 .2l.2.2.2-.1v.2h-.4l-.5.2c-.2.2-.3.5-.2.6v.1l.1.1.1-.1c0 .2 0 .4.1.5l.1.1.1.2.1-.1s.2-.2.2-.3v-.1l-.1-.1.1-.1.6.1h.1l.1-.1h1.1s.3.3.3.4l-.2.6c-.3 0-.5.1-.7.3-.3-.3-.5-.3-1.3-.3-1 0-1.6-.6-1.6-1.5V14H15v2.2c0 .8-.5 1.3-1.1 1.5m1.2-7.3c-.1.2-.1.5-.1.7v1.7c-.3 0-.4-.4-.4-.4v-.1h-.1c-.1 0-.2-.1-.3-.1-.2-.2-.2-.5-.2-.5s-.2.3 0 .6c.1.1.2.2.4.2 0 .2.2.5.6.5v.8h-1c-.5-.3-.3-.7-.3-.7V13l-.1-.1c-.5-.2-.4-.7-.4-.7v-.1h-.1c-.4-.2-.4-.7-.4-.7-.1.1-.2.3-.1.5l-.2.2c-.4-.1-.4-.5-.4-.5v-.1c-.2-.1-.3-.1-.3-.3-.1-.1 0-.3 0-.4h.4c.3 0 .6-.1.9-.5l2.1.1zm-1.6-1.7l.4.2.1.1c-.2.1-.4.2-.5.3l-.1.1s0 .1-.1.1l-.1.1c-.3.5-.7.8-1.2.8s-.9-.3-1.2-.8l-.1-.1s0-.1-.1-.1l-.1-.1c-.2-.1-.4-.3-.6-.3h.1l.4-.2.4-.2 1.1.6 1.1-.8.5.3zm-.5-.5l-.9.5V6.8l1.2-.4c0-.1-.3 1.8-.3 1.8zm-1-1.6L10.7 6c.1-.3.6-.5 1.3-.5s1.2.2 1.3.5l-1.3.6z"/></svg><svg width="10" height="6" fill="none" viewBox="0 0 10 6" id="up-pink" x="1095" y="400" xmlns="http://www.w3.org/2000/svg"><path d="M8.645.293L9.352 1 4.998 5.354.645 1l.707-.707 3.646 3.646L8.645.293z" fill="#FC3969"/></svg><svg width="47" height="27" viewBox="0 0 47 27" id="vk" x="969" y="421" xmlns="http://www.w3.org/2000/svg"><path fill="#5D4F65" fill-rule="evenodd" d="M22.534 26.466h2.752s.831-.092 1.256-.548c.391-.419.378-1.205.378-1.205s-.054-3.684 1.66-4.226c1.69-.534 3.86 3.56 6.16 5.134 1.739 1.191 3.06.931 3.06.931l6.15-.086s3.217-.199 1.692-2.72c-.125-.207-.889-1.866-4.573-5.276-3.856-3.569-3.339-2.992 1.305-9.166 2.829-3.76 3.96-6.055 3.607-7.038-.337-.936-2.418-.689-2.418-.689l-6.924.043s-.513-.07-.894.156c-.372.223-.611.741-.611.741s-1.096 2.91-2.557 5.385c-3.083 5.22-4.317 5.497-4.82 5.172-1.173-.756-.88-3.035-.88-4.654 0-5.061.77-7.17-1.499-7.716-.752-.182-1.306-.301-3.232-.321-2.47-.025-4.561.008-5.745.587-.788.384-1.396 1.241-1.025 1.291.457.06 1.494.278 2.043 1.024.71.963.685 3.125.685 3.125s.408 5.955-.952 6.695c-.933.507-2.214-.528-4.963-5.265-1.408-2.427-2.471-5.108-2.471-5.108s-.205-.501-.571-.77c-.444-.325-1.064-.428-1.064-.428l-6.58.043s-.987.027-1.35.457c-.323.38-.026 1.167-.026 1.167S5.278 15.22 11.111 21.277c5.35 5.553 11.423 5.189 11.423 5.189z"/></svg><svg width="14" height="14" viewBox="0 0 14 14" id="x" x="1124" y="421" xmlns="http://www.w3.org/2000/svg"><path fill="#5D4F65" fill-rule="evenodd" d="M8.414 6.999l4.95 4.95a.999.999 0 1 1-1.414 1.414L7 8.413l-4.95 4.95a.999.999 0 1 1-1.414-1.414l4.95-4.95-4.95-4.95A1 1 0 0 1 2.051.635L7 5.585l4.949-4.95a1 1 0 0 1 1.415 1.414l-4.95 4.95z"/></svg></svg>