<?xml version="1.0" encoding="utf-8"?>
<!-- Generator: Adobe Illustrator 22.1.0, SVG Export Plug-In . SVG Version: 6.00 Build 0)  -->
<svg version="1.1" xmlns="http://www.w3.org/2000/svg" xmlns:xlink="http://www.w3.org/1999/xlink" x="0px" y="0px"
	 viewBox="0 0 24 24" style="enable-background:new 0 0 24 24;" xml:space="preserve">
<path d="M11.1,18.4v2.2c0,0.7-0.6,1.3-1.3,1.3s-1.3-0.6-1.3-1.3v-2.2H7.5c-0.5,0-0.9-0.4-0.9-0.9v-9h10.8v9c0,0.5-0.4,0.9-0.9,0.9
	h-0.9v2.2c0,0.7-0.6,1.3-1.3,1.3s-1.3-0.6-1.3-1.3v-2.2H11.1z M14.7,4c1.3,0.8,2.3,2.1,2.5,3.7H6.7C6.9,6.1,7.9,4.7,9.2,4L8,2.6
	L8.7,2L10,3.5c0.6-0.2,1.3-0.4,2-0.4c0.7,0,1.3,0.1,2,0.4L15.2,2l0.7,0.6L14.7,4z M19.6,8.6c0.7,0,1.3,0.6,1.3,1.3v4.5
	c0,0.7-0.6,1.3-1.3,1.3c-0.7,0-1.3-0.6-1.3-1.3V9.9C18.2,9.2,18.8,8.6,19.6,8.6z M4.3,8.6c0.7,0,1.3,0.6,1.3,1.3v4.5
	c0,0.7-0.6,1.3-1.3,1.3S3,15.1,3,14.4V9.9C3,9.2,3.6,8.6,4.3,8.6z"/>
</svg>
