<svg xmlns="http://www.w3.org/2000/svg" width="36" height="26">
    <path fill="#FFF" fill-rule="evenodd" d="M32.398 24.109c-.863.621-4.276 1.446-14.406 1.446-10.861 0-13.461-.946-13.977-1.256-2.683-1.612-2.999-9.127-3.032-11.085.024-1.482.285-9.794 3.034-11.445C4.534 1.457 7.143.505 17.992.505c10.123 0 13.539.83 14.406 1.454 2.408 1.735 2.613 9.276 2.619 11.23-.007 2.43-.276 9.234-2.619 10.92zM31.23 3.581c-.351-.251-3.358-1.076-13.238-1.076-9.55 0-12.564.748-12.944.978-.954.572-1.986 5.013-2.065 9.726.08 4.724 1.098 8.796 2.063 9.375.379.229 3.385.971 12.946.971 9.888 0 12.889-.818 13.238-1.069.85-.612 1.773-4.468 1.787-9.291-.014-4.748-.931-8.996-1.787-9.614zm-6.494 10.517c0 .726.616 1.352 1.364 1.352.484 0 .825-.208 1.057-.549h1.441c-.341.89-1.122 1.661-2.509 1.661-1.573 0-2.805-1.144-2.805-2.861 0-1.507.99-2.772 2.706-2.772 1.739 0 2.685 1.298 2.685 2.772 0 .121 0 .253-.022.397h-3.917zm1.243-2.135c-.726 0-1.177.539-1.232 1.122h2.464c-.065-.616-.539-1.122-1.232-1.122zm-7.326 2.135c0 .726.616 1.352 1.364 1.352.484 0 .825-.208 1.057-.549h1.441c-.341.89-1.122 1.661-2.509 1.661-1.573 0-2.805-1.144-2.805-2.861 0-1.507.99-2.772 2.706-2.772 1.739 0 2.685 1.298 2.685 2.772 0 .121 0 .253-.022.397h-3.917zm1.243-2.135c-.726 0-1.177.539-1.232 1.122h2.465c-.066-.616-.54-1.122-1.233-1.122zm-5.071 1.848v2.564H13.34v-5.27h1.452v.814h.033c.286-.517.836-.968 1.541-.968.209 0 .341.011.484.044v1.386a3.827 3.827 0 0 0-.705-.066c-.88 0-1.32.55-1.32 1.496zM9.446 12.04h2.806v1.298H9.446v3.037H7.873V8.871h4.489v1.365H9.446v1.804z"/>
</svg>
