<svg xmlns="http://www.w3.org/2000/svg" width="44" height="48">
    <path fill="#8549B0" fill-rule="evenodd" d="M41 40H28v3.599l2.7 2.7c.4.4.4 1 0 1.4-.2.2-.45.3-.7.3-.25 0-.5-.1-.7-.3l-3-3c-.2-.2-.3-.449-.3-.7V40h-8v3.999c0 .251-.1.5-.3.7l-1.3 1.3H25c.55 0 1 .451 1 1 0 .55-.45 1-1 1H14c-.4 0-.75-.25-.9-.6-.15-.4-.1-.8.2-1.1l2.7-2.7V40H3c-1.65 0-3-1.351-3-3V10.999c0-1.649 1.35-3 3-3h9c.55 0 1 .451 1 1 0 .551-.45 1-1 1H3c-.55 0-1 .451-1 1V37c0 .549.45 1 1 1h38c.6 0 1-.351 1-.501V36c0-.551.45-1 1-1s1 .449 1 1v1.499C44 38.9 42.65 40 41 40zm2-7.001H5c-.55 0-1-.45-1-1s.45-1 1-1h37v-20c0-.549-.45-1-1-1h-9c-.55 0-1-.449-1-1 0-.549.45-1 1-1h9c1.65 0 3 1.351 3 3v21c0 .55-.45 1-1 1zm-19-20v7c0 .55-.45 1-1 1s-1-.45-1-1v-7c0-.549.45-1 1-1s1 .451 1 1zm3-1.649v14.649c0 .35-.15.651-.45.851-.2.1-.35.149-.55.149-.15 0-.3-.049-.45-.1l-8-4c-.35-.15-.55-.5-.55-.9v-7c0-.549.45-1 1-1s1 .451 1 1v6.4l6 3v-13.4c0-.25.1-.45.2-.6L31.95 2H12.1l6.65 8.35c.35.449.3 1.049-.15 1.399-.45.35-1.05.3-1.4-.15l-8-10C9 1.3 8.95.9 9.1.549 9.25.2 9.6 0 10 0h24c.4 0 .75.2.9.549.2.351.15.751-.1 1.05L27 11.35z"/>
</svg>
