<svg xmlns="http://www.w3.org/2000/svg" width="48" height="42">
    <path fill="#8549B0" fill-rule="evenodd" d="M16 4.999a1 1 0 1 1-2 0 1 1 0 0 1 2 0zm-4 0a1 1 0 1 1-2 0 1 1 0 0 1 2 0zm-4 0a1 1 0 1 1-2 0 1 1 0 0 1 2 0zm30 26h-5c-.55 0-1-.45-1-1 0-1.7-.55-3.299-1.45-4.6l-4.7 5.85c.1.2.15.45.15.701 0 1.1-.9 2-2 2s-2-.9-2-2 .9-2.001 2-2.001c.1 0 .2.05.3.05l4.9-6.1c-1.4-1.15-3.2-1.9-5.2-1.9-4.4 0-8 3.601-8 8 0 .55-.45 1-1 1s-1-.45-1-1c0-5.5 4.5-10 10-10 2.45 0 4.7.9 6.45 2.35l1.9-2.35c-2.25-1.85-5.15-3-8.3-3-7.15 0-13 5.85-13 13 0 .55-.45 1-1 1s-1-.45-1-1c0-8.25 6.75-15 15-15 3.6 0 6.95 1.3 9.55 3.451l1.65-2.051c.35-.4.95-.5 1.4-.15.4.35.5.95.15 1.4l-1.8 2.2c2.5 2.651 4 6.25 4 10.15 0 .55-.45 1-1 1zm-4.25-9.6l-1.9 2.401a10.006 10.006 0 0 1 2.1 5.199h3c-.2-2.9-1.4-5.5-3.2-7.6zM47 41.999c-.55 0-1-.45-1-.999V9.999H5c-.55 0-1-.45-1-1s.45-1 1-1h41v-3c0-1.65-1.35-3-3-3H5c-1.65 0-3 1.35-3 3V40h41c.55 0 1 .449 1 1 0 .549-.45.999-1 .999H1c-.55 0-1-.45-1-.999V4.999c0-2.75 2.25-5 5-5h38c2.75 0 5 2.25 5 5V41c0 .549-.45.999-1 .999z"/>
</svg>
