<?xml version="1.0" encoding="utf-8"?>
<!-- Generator: Adobe Illustrator 23.0.3, SVG Export Plug-In . SVG Version: 6.00 Build 0)  -->
<svg version="1.1" id="Layer_1" xmlns="http://www.w3.org/2000/svg" xmlns:xlink="http://www.w3.org/1999/xlink" x="0px" y="0px"
	 viewBox="0 0 300 100" style="enable-background:new 0 0 300 100;" xml:space="preserve">
<style type="text/css">
	.st0{fill:#E25695;}
	.st1{fill:#5D4F65;}
</style>
<path class="st0" d="M67.92,57.63c0,4.99-3.22,8.08-7.17,8.08c-3.96,0-7.17-3.09-7.17-8.08s3.21-7.84,7.17-7.84
	C64.7,49.78,67.92,52.63,67.92,57.63z M53.82,82.82V69.03c1.49,1.9,4.21,3.56,8.16,3.56c8.16,0,13.36-6.42,13.36-14.97
	c0-8.32-4.7-14.74-13.11-14.74c-4.2,0-7.42,1.9-8.66,4.04v-3.57h-7.42v39.45H53.82z M99.58,57.63c0,4.99-3.22,8.08-7.18,8.08
	c-3.95,0-7.17-3.09-7.17-8.08s3.22-7.84,7.17-7.84S99.57,52.63,99.58,57.63L99.58,57.63z M85.48,82.82V69.03
	c1.48,1.9,4.2,3.56,8.16,3.56c8.16,0,13.35-6.42,13.35-14.97c0-8.32-4.7-14.74-13.11-14.74c-4.2,0-7.42,1.9-8.66,4.04v-3.57h-7.42
	v39.45H85.48L85.48,82.82z M23.74,40.77l-1.92-5.15L8.15,70.21H0l15.82-36.8l-5.27,2.7l-3.12-6.63l16.3-7.6l2.16,5.89l4.08,10.79
	C29.97,38.32,23.74,40.77,23.74,40.77L23.74,40.77z M41.96,70.21h-7.91l-3.36-9.57H14.87l3.12-7.36h10.07l-3.6-9.81l6.47-2.21
	L41.96,70.21z"/>
<path class="st1" d="M298.3,41.82c-2.42,0-6.3,0.75-8,4.71v-4.46h-7.28v29.25h7.52V57.93c0-6.45,3.39-8.18,7.28-8.18
	c0.73,0,1.45,0,2.18,0.25v-7.93C299.52,41.82,299.03,41.82,298.3,41.82L298.3,41.82z M259.02,53.22c0.24-3.22,2.91-5.95,6.3-5.7
	c4.36,0,6.06,2.98,6.31,5.7H259.02L259.02,53.22z M265.08,41.07c-7.28,0-13.82,6.2-13.82,15.37c0,9.92,6.79,15.62,14.55,15.62
	c6.79,0,11.4-4.22,12.85-9.42l-6.31-1.99c-0.97,2.73-2.91,4.46-6.3,4.46c-3.88,0-6.79-2.73-7.03-6.69h20.13v-2.48
	C278.9,46.77,273.81,41.07,265.08,41.07z M243.74,33.14l-11.64,11.9v3.97h4.12v13.64c0,5.7,3.39,9.17,8.97,9.17
	c2.18,0,3.64-0.5,4.36-0.74v-6.44c-0.48,0-1.45,0.25-2.42,0.25c-2.18,0-3.4-0.74-3.4-3.47v-12.4h5.58v-6.94h-5.58V33.14z
	 M221.44,53.47l-3.88-0.99c-1.45-0.25-2.67-1.24-2.67-2.73c0-1.73,1.7-2.98,3.64-2.98c3.15,0,4.36,2.23,4.61,3.97l6.3-1.49
	c-0.24-3.22-2.91-8.43-10.91-8.43c-6.06,0-10.43,4.46-10.43,9.67c0,4.21,2.42,7.44,8,8.68l3.64,0.99c2.18,0.49,2.91,1.49,2.91,2.98
	c0,1.49-1.21,2.98-3.64,2.98c-3.39,0-4.85-2.23-5.09-4.46l-6.55,1.49c0.24,3.22,3.15,9.17,11.64,9.17c7.27,0,10.91-4.96,10.91-9.67
	C229.92,58.18,227.01,54.71,221.44,53.47L221.44,53.47z M190.88,64.87c-3.64,0-7.03-2.98-7.03-8.43c0-5.45,3.39-8.43,7.03-8.43
	c3.64,0,7.03,2.73,7.03,8.43C197.91,62.15,194.52,64.87,190.88,64.87z M190.88,41.07c-8.49,0-14.79,6.44-14.79,15.62
	c0,8.92,6.3,15.62,14.79,15.62s14.79-6.44,14.79-15.62C205.43,47.52,199.13,41.07,190.88,41.07z M159.12,64.87
	c-3.64,0-7.03-2.98-7.03-8.43c0-5.45,3.39-8.43,7.03-8.43c3.64,0,7.03,2.73,7.03,8.43C166.15,62.15,163,64.87,159.12,64.87z
	 M159.12,41.07c-8.49,0-14.79,6.44-14.79,15.62c0,8.92,6.3,15.62,14.79,15.62c8.49,0,14.79-6.44,14.79-15.62
	C173.91,47.52,167.6,41.07,159.12,41.07L159.12,41.07z M127.84,64.87c-3.88,0-7.03-2.98-7.03-8.43c0-5.45,3.15-8.18,7.03-8.18
	c3.88,0,7.03,2.98,7.03,8.18C134.62,61.9,131.72,64.87,127.84,64.87z M129.29,41.07c-4.12,0-7.28,1.98-8.49,3.97V28.18h-7.52v43.13
	h7.28v-3.47c1.45,2.48,4.36,4.22,8.24,4.22c8,0,13.34-6.69,13.34-15.62C142.38,47.77,137.53,41.07,129.29,41.07L129.29,41.07z"/>
</svg>