<?xml version="1.0" encoding="utf-8"?>
<!-- Generator: Adobe Illustrator 22.1.0, SVG Export Plug-In . SVG Version: 6.00 Build 0)  -->
<svg version="1.1" id="Layer_1" xmlns="http://www.w3.org/2000/svg" xmlns:xlink="http://www.w3.org/1999/xlink" x="0px" y="0px"
	 viewBox="0 0 24 24" style="enable-background:new 0 0 48 48;" xml:space="preserve">
<style type="text/css">
	.st0{fill:#FCE527;}
	.st1{fill:#FFFFFF;}
</style>
<path fill="#FCE527" d="M20,24H4c-2.2,0-4-1.8-4-4V4c0-2.2,1.8-4,4-4h16c2.2,0,4,1.8,4,4v16C24,22.2,22.2,24,20,24z"/>
<path fill="#FFFFFF" d="M21.8,11.4l0.2-0.8l-0.9,0c-0.1,0-0.6,0-1.1-0.4h0.1c0.5,0,1-0.3,1.2-0.8l0.4-0.8c-0.5,0-0.9,0-0.9,0
	s-0.3,0-0.7-0.4c-0.3-0.3-0.6-0.4-1-0.4c-0.2,0-0.3,0-0.4,0.1c0-0.1,0-0.1,0-0.2c0.1-0.8-0.4-1.4-0.4-1.4l-0.6-0.8l-0.4,0.9
	c0,0-0.1,0.2-0.3,0.3c0-0.3-0.2-0.6-0.5-0.9c-0.5-0.6-1.2-0.6-1.5-0.6c-0.1,0-0.3,0-0.3,0L14,5.3c0-0.2,0.1-0.5,0.3-0.7l0.4-0.7
	L13.6,4l-0.3-0.7l-0.7,0.3L12,3l-0.6,0.6l-0.7-0.3L10.4,4L9.3,3.9l0.4,0.7C9.9,4.8,10,5.1,10,5.3L9.3,5.2h0c0,0-0.1,0-0.3,0
	c-0.3,0-1,0.1-1.5,0.6C7.1,6.1,7,6.4,7,6.7C6.8,6.6,6.7,6.3,6.7,6.3L6.3,5.4L5.6,6.2C5.5,6.3,5.1,6.9,5.2,7.6c0,0.1,0,0.1,0,0.2
	C5.2,7.7,5,7.7,4.9,7.7c-0.4,0-0.7,0.1-1,0.4C3.5,8.5,3.2,8.5,3.2,8.5s-0.3,0.1-0.9,0l0.4,0.8c0.2,0.4,0.7,0.8,1.2,0.8H4
	c-0.5,0.4-1,0.4-1.1,0.4l-0.9,0l0.3,0.8c0.1,0.4,0.6,1.1,1.4,1.2c-0.1,0.4-0.3,0.8-0.7,1l-0.6,0.3l0.3,0.6c0.2,0.3,0.7,0.7,1.3,0.7
	c0.1,0,0.3,0,0.4,0c0,0.1,0.1,0.3,0.1,0.4c0.2,0.6,0,1,0,1l-0.3,0.7L5,17.5c0,0,0.2,0.1,0.5,0.1c0.1,0,0.2,0,0.3,0
	c0.1,0,0.2,0,0.2-0.1c0.1,0.2,0.2,0.3,0.3,0.4c0.5,0.5,1.1,0.7,1.9,0.7h0.6l-1.2,0.5l0.9,0.4C9,19.7,9.4,19.9,9.8,20l-0.1,0.3
	l0.3,0.1c0,0,0.6,0.3,1.7,0.3h0.7c1,0,1.6-0.3,1.7-0.3l0.3-0.1L14.2,20c0.4-0.1,0.8-0.3,1.2-0.5l0.9-0.4l-1.2-0.5h0.6
	c0.8,0,1.5-0.2,1.9-0.7c0.1-0.1,0.2-0.3,0.3-0.4c0.1,0,0.1,0,0.2,0.1c0.1,0,0.2,0,0.3,0c0.3,0,0.5,0,0.5,0l0.7-0.2l-0.3-0.7
	c0,0-0.2-0.4,0-1c0-0.1,0.1-0.3,0.1-0.4c0.1,0,0.3,0,0.4,0c0.9,0,1.3-0.6,1.3-0.7l0.3-0.6l-0.6-0.3c-0.4-0.2-0.7-0.6-0.7-1
	C21.2,12.5,21.6,11.8,21.8,11.4z M12,5.5c-0.7,0-1.2,0.2-1.3,0.5L12,6.6L13.3,6C13.2,5.8,12.7,5.5,12,5.5 M12,19.3L12,19.3
	c-0.4,0-1-0.1-1.3-0.2l-0.3,0.9c0.2,0.1,1,0.2,1.6,0.2s1.4-0.1,1.6-0.2l-0.3-0.9C13,19.3,12.4,19.3,12,19.3"/>
<path fill="#FFFFFF" d="M14.5,18.4c-0.2,0.1-0.8,0.3-1.1,0.4l0.3,0.7c0.5-0.1,0.9-0.3,1.3-0.5L14.4,19C14.4,19,14.5,18.4,14.5,18.4z
	 M9.5,18.4L9.6,19l-0.6,0.2c0.3,0.2,0.7,0.3,1.3,0.5l0.3-0.7C10.3,18.8,9.7,18.6,9.5,18.4 M12,4.7c0.5,0,1,0.1,1.4,0.3
	c0-0.1,0.1-0.3,0.1-0.4l-0.1,0l-0.1,0l-0.1-0.1L13,4.1l-0.4,0.2l-0.1,0.1l-0.1-0.1L12,3.8l-0.4,0.4l-0.1,0.1l-0.1-0.1L11,4.1
	l-0.2,0.4l-0.1,0.1l-0.1,0l-0.1,0c0.1,0.1,0.1,0.3,0.1,0.4C11,4.8,11.5,4.7,12,4.7 M19.9,9.5c0.1,0,0.1,0,0.2,0
	c0.3,0,0.6-0.2,0.7-0.4c0,0-0.5,0-1.1-0.6c-0.2-0.2-0.4-0.2-0.5-0.2c-0.3,0-0.4,0.1-0.4,0.1C19.4,8.8,19.5,9.4,19.9,9.5 M3.9,9.6
	c0.1,0,0.1,0,0.2,0c0.4-0.1,0.5-0.7,1.2-1.1c0,0-0.2-0.1-0.4-0.1c-0.2,0-0.4,0-0.5,0.2C3.7,9.1,3.2,9.1,3.2,9.1
	C3.3,9.4,3.6,9.6,3.9,9.6 M20.1,12L20.1,12c0.8,0,1-0.8,1-0.8h0c-0.1,0-1.2,0-2-1c-0.5-0.6-0.9-1.2-1.8-1.4l-0.1,0l0-0.1
	c0-0.1,0.1-0.2,0.2-0.4c1.1-0.7,0.4-1.7,0.4-1.7s-0.3,0.8-1,0.8h0c-0.1,0-0.2,0-0.2,0l-0.1,0c0,0,0.2-0.6-0.3-1.1
	c-0.4-0.4-0.8-0.4-1.1-0.4c-0.1,0-0.2,0-0.2,0C15.1,6.1,15.2,6.6,15,7c-0.2,0.3-0.9,0.3-0.9,0.7c0,0.2,0.2,0.4,0.5,0.6
	c0.9,0.6,1.8,1.3,2.2,2.4c0.5,1.3,0,2.1-0.8,2.6c0,0,0.2,0.2,0.6,0.2h0.2c0.7,0,1.1-0.3,1.1-0.3s-0.1,0.5-0.4,0.9
	c-0.3,0.4-0.8,0.6-1.5,0.6c0,0,0,0.3,0.3,0.6c0.2,0.2,0.7,0.2,0.7,0.2s-0.9,0.2-1,1.4c0,0.7-0.2,0.9-0.2,0.9h0c2,0,2-1.7,2-1.7
	s0.1,0.5,0.7,0.6c0.1,0,0.1,0,0.2,0c0.2,0,0.3,0,0.3,0s-0.3-0.6,0-1.5c0.2-0.7,0.2-1.2,0.2-1.2s0.3,0.4,0.9,0.4
	c0.5,0,0.8-0.4,0.8-0.4c-1.3-0.5-1.2-2.4-1.2-2.4S19.8,12,20.1,12 M19.7,13.8c-0.5-0.3-0.9-1-1-1.2C18.7,14,18,15,17.2,15.9
	c-0.4,0.5-0.6,1-0.6,1s0.1-0.5,0.4-1c0.7-0.9,1.5-2,1.5-3.3c0-0.9-0.2-1.6-0.6-2.3c0.2,0.6,0.2,1.4-0.5,2.1c0,0,1.4-1.6-0.5-3.3
	c-0.8-0.6-1.6-1-2-1.3c1.6,0.5,2.3,0,2.3,0c-0.5,0.4-1.1,0.4-1.5,0.4c0.1,0,0.2,0.1,0.3,0.2c1.3,0.7,2.5,1.9,2.7,3.5v0
	C19.1,13.4,19.7,13.8,19.7,13.8 M7.1,15.6c0,0,0.5,0,0.7-0.2c0.3-0.3,0.3-0.6,0.3-0.6c-0.7,0-1.2-0.2-1.5-0.6
	c-0.4-0.4-0.4-0.9-0.4-0.9s0.4,0.3,1.1,0.3h0.2c0.3,0,0.6-0.2,0.6-0.2c-0.8-0.5-1.3-1.3-0.8-2.6c0.4-1,1.3-1.8,2.2-2.4
	c0.3-0.2,0.5-0.4,0.5-0.6c0-0.4-0.6-0.4-0.9-0.7C8.8,6.6,9,6,9.2,5.7c0,0-0.1,0-0.2,0c-0.3,0-0.7,0.1-1.1,0.4
	C7.4,6.7,7.6,7.2,7.6,7.2L7.4,7.3c-0.1,0-0.1,0-0.2,0h0c-0.7,0-1-0.8-1-0.8S5.3,7.5,6.5,8.2c0.2,0.1,0.3,0.2,0.2,0.4l0,0.1l-0.1,0
	C5.8,9,5.4,9.5,4.9,10.2c-0.8,1-1.9,1-2,1c0,0,0.2,0.8,1,0.8h0c0.3,0,0.5-0.1,0.5-0.1s0.1,1.8-1.2,2.4c0,0,0.2,0.4,0.8,0.4
	c0.7,0,0.9-0.4,0.9-0.4s0,0.5,0.2,1.2c0.3,0.9,0,1.5,0,1.5s0.1,0,0.3,0c0.1,0,0.1,0,0.2,0c0.6-0.1,0.7-0.6,0.7-0.6s0,1.7,2,1.7h0
	c0,0-0.2-0.2-0.2-0.9C8,15.8,7.1,15.6,7.1,15.6 M6.8,15.9C6,15,5.3,14,5.2,12.6c-0.1,0.2-0.4,1-1,1.2c0,0,0.7-0.4,1-2v0
	C5.5,10.2,6.7,9.1,8,8.3c0.1-0.1,0.2-0.1,0.3-0.2c-0.4,0.1-1,0.1-1.5-0.4c0,0,0.8,0.6,2.3,0c-0.4,0.3-1.3,0.7-2,1.3
	c-1.9,1.7-0.5,3.3-0.5,3.3C5.8,11.8,5.8,11,6,10.4c-0.4,0.6-0.6,1.3-0.6,2.3c0,1.3,0.8,2.4,1.5,3.3c0.4,0.4,0.4,1,0.4,1
	S7.2,16.4,6.8,15.9"/>
<path fill="#FFFFFF" d="M10.5,9.3c0,0,0.1,0.1,0.1,0.1l0,0c0,0,0,0.1,0.1,0.1c0,0,0,0,0,0c0,0,0.1,0.1,0.1,0.1c0.3,0.5,0.7,0.8,1.2,0.8
	c0.4,0,0.9-0.3,1.2-0.8c0,0,0.1-0.1,0.1-0.1c0,0,0,0,0,0c0,0,0-0.1,0.1-0.1l0,0c0,0,0.1-0.1,0.1-0.1l0,0C13.7,9.2,13.9,9,14.1,9
	l-0.1,0l-0.4-0.2l-0.4-0.2L12,9.1l-1.1-0.6l-0.4,0.2l-0.4,0.2L10,9C10.2,9.1,10.4,9.2,10.5,9.3C10.5,9.3,10.5,9.3,10.5,9.3
	 M11.6,9.3h0.9v0.3c-0.1-0.1-0.3-0.1-0.3-0.1V10c0,0,0,0.2,0.1,0.3h-0.4c0.1-0.1,0.1-0.3,0.1-0.3V9.5c0,0-0.2,0-0.3,0.1L11.6,9.3
	L11.6,9.3z M11.9,8.7V6.8l-1.2-0.4L11,8.2C11,8.2,11.9,8.7,11.9,8.7z M11.7,7.2v0.3l0,0c0,0-0.1,0-0.2-0.1C11.1,7.2,11.1,7,11.1,7
	L11.7,7.2z M13,8.2l0.3-1.8l-1.2,0.4v1.9C12.1,8.7,13,8.2,13,8.2z M12.4,7.2L12.9,7c0,0,0,0.2-0.2,0.4c-0.1,0.1-0.2,0.1-0.2,0.1l0,0
	C12.4,7.6,12.4,7.2,12.4,7.2z M10.2,13c0.1,0,0.2,0,0.3,0v0c0,0,0,0,0-0.1c0-0.1,0-0.2,0-0.3c0,0-0.1-0.1-0.1-0.2
	c0-0.1-0.1-0.1-0.2-0.1c-0.1,0-0.2,0.1-0.3,0.1C9.9,12.8,10.1,13,10.2,13 M12.9,12.1c-0.2,0.2-0.7,0.7-0.7,0.7l0,0l-1.4,0
	c0,0.1,0,0.2,0,0.3v0l1.7,0.3c0.2-0.1,0.6-0.5,0.8-0.6c-0.1-0.2-0.1-0.4-0.1-0.6C13,12.2,12.9,12.1,12.9,12.1"/>
<path fill="#FFFFFF" d="M13.1,10.4c-0.3,0.3-0.6,0.4-0.9,0.5h-0.3c0,0-0.1,0-0.1,0c0,0.1,0,0.2,0,0.4c0,0.1,0.2,0.2,0.3,0.3l0,0v0.1
	c0,0,0,0.4,0.4,0.5c0.1-0.1,0.1-0.1,0.2-0.2c-0.1-0.2,0-0.4,0.1-0.5c0,0-0.1,0.5,0.4,0.7l0.1,0l0,0.1c0,0-0.1,0.5,0.4,0.7l0.1,0
	l0,0.1c0,0-0.2,0.5,0.3,0.7h1V13c-0.4,0-0.5-0.3-0.6-0.5c-0.2,0-0.3-0.1-0.4-0.2c-0.2-0.3,0-0.5,0-0.6c0,0,0,0.3,0.2,0.4
	c0.1,0.1,0.2,0.1,0.3,0.1h0.1v0.1c0,0,0,0.4,0.4,0.4v-1.7c0-0.2,0.1-0.5,0.2-0.8L13.1,10.4L13.1,10.4z M10.3,11.1l0,1.1l0.1,0l0.3-1
	l-0.1-0.3L10.3,11.1z M13.6,16L13.6,16c0.2,0,0.2,0.7,0.6,0.8h0.1c0.1,0,0.1,0,0.2-0.1c0,0-0.2-0.2-0.3-0.4
	c-0.2-0.2-0.3-0.5-0.6-0.5h0c-0.1,0-0.1,0-0.1,0c-0.1-0.1-0.2-0.1-0.3-0.1c-0.2,0-0.3,0.1-0.4,0.1L12,15.7c-0.1,0-0.2-0.1-0.2-0.1
	v-0.1c0-0.5-0.4-0.8-0.6-0.8c0,0,0-0.1,0-0.1L11,14.7l-0.5-0.2l0.3,0.4l-0.3,0.3c0,0,0,0.1,0,0.1l0.1,0.1l0.1-0.1H11
	c0.1,0,0.1,0,0.1-0.1c0,0.2-0.2,0.5-0.1,0.8l0.1,0.2l-0.6-0.1l-0.3,0.5c-0.1,0.1-0.1,0.3,0,0.4l0.1,0.1c0,0,0.1-0.1,0.2-0.2l0,0
	c0,0,0-0.1,0-0.1l0.2-0.3l0.7,0.2l0-0.1c0-0.1,0.1-0.1,0.2-0.1h0.1c0.1,0,0.3,0,0.5,0c0.2,0,0.5,0,0.6-0.2c0.2,0.4,0.8,0.4,0.7,0.6
	l-0.1,0.6c0.1,0,0.2,0,0.2,0l0.1-0.7c0-0.1,0-0.2,0-0.2c0,0-0.2-0.1-0.2-0.3c-0.1-0.2,0-0.3-0.1-0.5C13.5,16.1,13.5,16,13.6,16
	 M10.9,15.1C10.9,15.1,10.9,15.1,10.9,15.1c0-0.1,0-0.1,0-0.1C11,15,11,15,10.9,15.1C11,15.1,11,15.1,10.9,15.1"/>
<path fill="#FFFFFF" d="M10,16.6c0,0,0.2-0.1,0.2-0.2l0-0.1c0,0,0-0.1,0-0.1l0.2-0.2l0.4,0.1c0,0-0.1-0.1-0.1-0.2l-0.4-0.1L10,16.1
	C9.9,16.2,9.9,16.4,10,16.6C9.9,16.5,10,16.6,10,16.6z M12.9,17.7h0.2c0,0,0.2-0.6,0.2-0.6c-0.1,0-0.4-0.2-0.5-0.2
	c0.1,0.1,0.2,0.2,0.2,0.3C13.1,17.1,12.9,17.7,12.9,17.7z"/>
<path fill="#FCE527" d="M15,14H9v2.2c0,0.9,0.7,1.5,1.6,1.5c0.8,0,1,0,1.3,0.3c0.2-0.2,0.4-0.3,0.7-0.3v0l0.2-0.6c0,0-0.3-0.4-0.3-0.4
	c-0.1,0-0.2,0-0.4,0c-0.2,0-0.4,0-0.6,0h-0.1c0,0,0,0,0,0l0,0l-0.1,0.1l-0.1,0l-0.6-0.1l-0.1,0.1v0l0.1,0.1l0,0.1
	c0,0.1-0.2,0.3-0.2,0.3l-0.1,0.1l-0.1-0.2l-0.1-0.1C10,17.1,10,17,10,16.8l-0.1,0.1l-0.1-0.1l0-0.1c-0.1-0.2,0-0.5,0.2-0.6l0.5-0.2
	l0.4,0.1c0,0,0-0.2,0-0.2h0l-0.2,0.1l-0.2-0.2c0,0-0.1-0.1,0-0.2l0.2-0.3L10,14.2l0.9,0.4l0-0.1l0.1-0.1l0.1,0.1
	c0,0,0.1,0.1,0.1,0.1c0.2,0.1,0.7,0.4,0.7,0.9h-0.2c0,0,0,0,0.1,0l0.6,0.1c0,0,0,0,0,0c0.1,0,0.2-0.1,0.3-0.1c0.1,0,0.2,0,0.3,0.1
	c0,0,0.1,0,0.1,0h0c0.3,0,0.5,0.3,0.7,0.5c0,0,0,0.1,0.1,0.1c0.1,0.2,0.3,0.4,0.3,0.4l0.1,0.1l-0.1,0.1c-0.1,0.1-0.2,0.2-0.3,0.2
	h-0.1c0,0-0.1,0-0.1,0c0,0,0,0.1,0,0.1l-0.1,0.6c0.7-0.2,1.1-0.7,1.1-1.4L15,14L15,14z M9,13.8h4.6c-0.2-0.2-0.2-0.5-0.2-0.7
	c-0.1,0-0.1-0.1-0.2-0.1c-0.2,0.1-0.7,0.5-0.9,0.6l0,0l-1.8-0.3h-0.2c0,0.1-0.1,0.1-0.2,0.1h0c0,0-0.1,0-0.1-0.1c0,0,0-0.1,0-0.1v0
	c-0.2-0.1-0.4-0.4-0.3-0.7v0l0,0c0,0,0,0,0.1,0l-0.1,0c0,0-0.1,0-0.1-0.1s0-0.1,0.1-0.1l0.3,0l0-1.1l0.5-0.5l0.3,0.6l-0.3,1.1l0.3,0
	c0,0,0.1,0,0.1,0.1s0,0.1-0.1,0.1h0l-0.2,0v0c0,0,0.1,0.1,0.1,0.1l1.4,0l0.3-0.3c-0.3-0.1-0.5-0.4-0.5-0.6c-0.2-0.1-0.3-0.2-0.4-0.4
	c-0.1-0.2,0-0.4,0-0.5c-0.2-0.1-0.4-0.2-0.6-0.4H8.9c0.1,0.2,0.2,0.5,0.2,0.8L9,13.8L9,13.8z"/>
<path d="M10.9,15C10.9,15,10.9,15,10.9,15c-0.1,0.1,0,0.1,0,0.1C10.9,15.1,11,15.1,10.9,15C11,15,11,15,10.9,15 M15,19l-0.3-0.1
	l0.1-0.3l0.1-0.4c0,0-0.6,0.3-1.5,0.6c-0.2,0.1-0.4,0.1-0.4,0.1v0.3c0,0-0.4,0.1-0.9,0.1c-0.5,0-0.9-0.1-0.9-0.1v-0.3
	c0,0-0.2,0-0.4-0.1c-0.9-0.2-1.5-0.6-1.5-0.6l0.1,0.4l0.1,0.3L9.1,19l-0.4,0.1c0.4,0.2,1,0.5,1.6,0.7l-0.1,0.3c0,0,0.7,0.3,1.9,0.3
	c1.2,0,1.9-0.3,1.9-0.3l-0.1-0.3c0.5-0.1,1.2-0.5,1.6-0.7C15.4,19.2,15,19,15,19z M9.1,19.2L9.6,19l-0.2-0.5
	c0.2,0.1,0.8,0.3,1.1,0.4l-0.3,0.7C9.8,19.5,9.4,19.3,9.1,19.2 M12,20.3c-0.6,0-1.4-0.1-1.6-0.2l0.3-0.9c0.3,0.1,0.8,0.2,1.3,0.2h0
	c0.4,0,1-0.1,1.3-0.2l0.4,0.9C13.4,20.2,12.7,20.3,12,20.3 M13.7,19.6l-0.3-0.7c0.3-0.1,0.9-0.3,1.1-0.4L14.4,19l0.6,0.2
	C14.6,19.3,14.2,19.5,13.7,19.6"/>
<path d="M12,4.9c0.7,0,1.3,0.2,1.6,0.5c0,0,0.1-0.5,0.4-1l-0.6,0.1l-0.3-0.6l-0.6,0.3L12,3.5l-0.5,0.5l-0.5-0.3l-0.3,0.6L10,4.3
	c0.3,0.5,0.4,1,0.4,1C10.8,5.1,11.3,4.9,12,4.9 M10.6,4.6l0.1,0l0.1-0.1L11,4.1l0.4,0.2l0.1,0.1l0.1-0.1L12,3.8l0.4,0.4l0.1,0.1
	l0.1-0.1L13,4.1l0.2,0.4l0.1,0.1l0.1,0l0.1,0c-0.1,0.1-0.1,0.3-0.1,0.4c-0.4-0.2-0.9-0.3-1.4-0.3c-0.5,0-1,0.1-1.4,0.3
	c0-0.1-0.1-0.3-0.1-0.4C10.5,4.6,10.6,4.6,10.6,4.6z M20.2,12.2c0.9,0,1.2-0.9,1.2-1l0.1-0.3h-0.3c-0.1,0-1.1,0-1.8-0.9l0-0.1
	c-0.5-0.6-0.9-1.1-1.7-1.4c0,0,0,0,0.1-0.1c0.4-0.3,0.6-0.6,0.7-1c0.1-0.6-0.3-1-0.3-1.1l-0.2-0.3l-0.1,0.4c0,0-0.3,0.6-0.8,0.6
	h-0.1c0-0.3,0-0.7-0.4-1c-0.4-0.5-1-0.5-1.3-0.5c-0.1,0-0.2,0-0.3,0l-0.4,0.1l0.2,0.3c0.2,0.2,0.3,0.7,0.1,0.9
	C14.7,6.9,14.6,7,14.5,7c-0.2,0.1-0.6,0.3-0.6,0.7c0,0.3,0.2,0.5,0.6,0.8c1.1,0.7,1.8,1.4,2.1,2.3c0.5,1.2-0.1,2-0.7,2.3l-0.3,0.2
	l0.2,0.2c0,0,0.3,0.3,0.7,0.3h0.2c0.3,0,0.5,0,0.7-0.1c0,0.1-0.1,0.2-0.2,0.3c-0.3,0.4-0.7,0.6-1.3,0.6h-0.2l0,0.2
	c0,0,0,0.4,0.4,0.8c0,0,0.1,0.1,0.2,0.1c-0.3,0.2-0.5,0.6-0.6,1.4c0,0.6-0.2,0.8-0.2,0.8l-0.2,0.4h0.4c0.7,0,1.3-0.2,1.7-0.6
	c0.2-0.2,0.3-0.5,0.4-0.7c0.1,0.1,0.3,0.2,0.5,0.2c0.1,0,0.2,0,0.3,0c0.2,0,0.4,0,0.4,0l0.3-0.1l-0.1-0.3c0,0-0.2-0.5,0-1.3
	c0.1-0.3,0.2-0.6,0.2-0.8c0.2,0.1,0.4,0.2,0.7,0.2c0.7,0,1-0.5,1-0.5l0.1-0.2l-0.2-0.1c-0.8-0.3-1-1.3-1-1.8
	C19.9,12.2,20,12.2,20.2,12.2C20.1,12.2,20.2,12.2,20.2,12.2z M20.8,14.2c0,0-0.2,0.4-0.8,0.4c-0.7,0-0.9-0.4-0.9-0.4s0,0.5-0.2,1.2
	c-0.3,0.9,0,1.5,0,1.5s-0.1,0-0.3,0c-0.1,0-0.1,0-0.2,0c-0.6-0.1-0.7-0.6-0.7-0.6s0,1.7-2,1.7h0c0,0,0.2-0.2,0.2-0.9
	c0.1-1.3,1-1.4,1-1.4s-0.5,0-0.7-0.2c-0.3-0.3-0.3-0.6-0.3-0.6c0.7,0,1.2-0.2,1.5-0.6c0.4-0.4,0.4-0.9,0.4-0.9s-0.4,0.3-1.1,0.3
	h-0.2c-0.3,0-0.6-0.2-0.6-0.2c0.8-0.5,1.3-1.3,0.8-2.6c-0.4-1-1.3-1.8-2.2-2.4c-0.3-0.2-0.4-0.4-0.4-0.6c0-0.4,0.6-0.4,0.9-0.7
	c0.3-0.3,0.1-0.9-0.1-1.2c0,0,0.1,0,0.2,0c0.3,0,0.7,0.1,1.1,0.4c0.5,0.5,0.3,1.1,0.3,1.1l0.1,0c0.1,0,0.1,0,0.2,0h0
	c0.7,0,1-0.8,1-0.8s0.8,0.9-0.4,1.7c-0.2,0.1-0.3,0.2-0.2,0.4l0,0.1l0.1,0c0.8,0.2,1.2,0.8,1.8,1.4c0.8,1,1.9,1,2,1h0
	c0,0-0.2,0.8-1,0.8h0c-0.3,0-0.5-0.1-0.5-0.1S19.5,13.6,20.8,14.2 M18.6,8.6c0.3,0.2,0.5,0.4,0.7,0.6c0.2,0.2,0.3,0.4,0.6,0.5
	c0.1,0,0.2,0,0.3,0c0.4,0,0.7-0.2,0.9-0.5L21.2,9l-0.3,0c0,0-0.5,0-1-0.5c-0.2-0.2-0.4-0.3-0.7-0.3c-0.3,0-0.6,0.2-0.6,0.2l-0.3,0.2
	L18.6,8.6z M19.2,8.3c0.2,0,0.4,0,0.5,0.2c0.6,0.6,1.1,0.6,1.1,0.6c-0.1,0.2-0.4,0.4-0.7,0.4c-0.1,0-0.1,0-0.2,0
	c-0.4-0.1-0.5-0.7-1.2-1.1C18.7,8.4,18.9,8.3,19.2,8.3 M18.8,11.8c-0.2-1.6-1.4-2.8-2.7-3.5c-0.1-0.1-0.2-0.1-0.3-0.2
	c0.4,0.1,1,0.1,1.5-0.4c0,0-0.8,0.6-2.3,0c0.4,0.3,1.3,0.7,2,1.3c1.9,1.7,0.5,3.3,0.5,3.3c0.7-0.7,0.7-1.5,0.5-2.1
	c0.4,0.6,0.6,1.3,0.6,2.3c0,1.3-0.8,2.4-1.5,3.3c-0.4,0.4-0.4,1-0.4,1s0.1-0.5,0.6-1c0.8-0.9,1.5-1.9,1.6-3.3c0.1,0.2,0.4,1,1,1.2
	C19.7,13.8,19.1,13.4,18.8,11.8"/>
<path d="M8.5,17.9c0,0-0.1-0.2-0.2-0.8c0-0.7-0.3-1.1-0.6-1.4c0.1,0,0.1-0.1,0.2-0.1c0.4-0.3,0.4-0.8,0.4-0.8l0-0.2H8.1
	c-0.6,0-1-0.2-1.3-0.6c-0.1-0.1-0.1-0.2-0.2-0.3c0.2,0,0.4,0.1,0.7,0.1h0.2c0.4,0,0.7-0.3,0.7-0.3l0.2-0.2l-0.3-0.2
	c-0.6-0.4-1.2-1.1-0.7-2.3c0.3-0.8,1-1.6,2.1-2.3c0.4-0.2,0.6-0.5,0.6-0.8c0-0.4-0.3-0.6-0.6-0.7C9.4,7,9.3,6.9,9.2,6.8
	C9,6.6,9.2,6.1,9.3,5.9l0.2-0.3L9.2,5.5c0,0-0.1,0-0.3,0C8.6,5.5,8.1,5.6,7.6,6c-0.4,0.4-0.4,0.8-0.4,1H7.1c-0.5,0-0.8-0.6-0.8-0.6
	L6.1,6.1L5.9,6.4c0,0-0.4,0.5-0.3,1.1c0,0.4,0.3,0.7,0.7,1c0,0,0.1,0,0.1,0.1C5.6,8.8,5.2,9.3,4.7,9.9L4.6,10c-0.7,0.9-1.7,1-1.8,1
	H2.5l0.1,0.3c0,0,0.3,1,1.2,1h0c0.1,0,0.2,0,0.2,0c0,0.5-0.2,1.4-1,1.8l-0.2,0.1L3,14.3c0,0,0.3,0.5,1,0.5c0.3,0,0.5-0.1,0.7-0.2
	c0,0.2,0.1,0.5,0.2,0.8c0.2,0.7,0,1.3,0,1.3l-0.1,0.3L5,17.1c0,0,0.2,0,0.4,0c0.1,0,0.2,0,0.3,0c0.2,0,0.4-0.1,0.5-0.2
	c0.1,0.2,0.2,0.5,0.4,0.7C7,18,7.6,18.2,8.3,18.2h0.4C8.8,18.2,8.5,17.9,8.5,17.9z M8.3,18c-2,0-2-1.7-2-1.7s-0.1,0.5-0.7,0.6
	c-0.1,0-0.1,0-0.2,0c-0.2,0-0.3,0-0.3,0s0.3-0.6,0-1.5c-0.2-0.7-0.2-1.2-0.2-1.2S4.6,14.6,4,14.6c-0.5,0-0.8-0.4-0.8-0.4
	c1.3-0.5,1.2-2.4,1.2-2.4S4.2,11.9,3.9,12h0c-0.7,0-1-0.8-1-0.8h0c0.1,0,1.2,0,2-1c0.5-0.6,0.9-1.2,1.8-1.4l0.1,0l0-0.1
	c0-0.1-0.1-0.2-0.2-0.4C5.4,7.5,6.1,6.6,6.1,6.6s0.3,0.8,1,0.8h0c0.1,0,0.2,0,0.2,0l0.1,0c0,0-0.2-0.6,0.3-1.1
	C8.3,5.8,8.7,5.7,9,5.7c0.1,0,0.2,0,0.2,0C9,6.1,8.8,6.6,9.1,7c0.2,0.3,0.9,0.3,0.9,0.7c0,0.2-0.2,0.4-0.5,0.6
	c-0.9,0.6-1.8,1.3-2.2,2.4c-0.5,1.3,0,2.1,0.8,2.6c0,0-0.2,0.2-0.6,0.2H7.3c-0.7,0-1.1-0.3-1.1-0.3s0.1,0.5,0.4,0.9
	c0.3,0.4,0.8,0.6,1.5,0.6c0,0,0,0.3-0.3,0.6c-0.2,0.2-0.7,0.2-0.7,0.2s0.9,0.2,1,1.4C8.2,17.8,8.3,18,8.3,18L8.3,18z M3.9,9.8
	c0.1,0,0.2,0,0.3,0c0.2-0.1,0.4-0.3,0.6-0.5C4.9,9,5.1,8.8,5.4,8.6l0.3-0.2L5.4,8.2c0,0-0.3-0.2-0.6-0.2C4.5,8,4.3,8.1,4.1,8.4
	c-0.5,0.5-0.9,0.5-1,0.5l-0.3,0L3,9.3C3.1,9.6,3.5,9.8,3.9,9.8 M4.3,8.5c0.2-0.2,0.4-0.2,0.5-0.2c0.2,0,0.4,0.1,0.4,0.1
	c-0.7,0.4-0.8,1-1.2,1.1c-0.1,0-0.1,0-0.2,0c-0.3,0-0.6-0.2-0.7-0.4C3.2,9.2,3.7,9.1,4.3,8.5 M5.4,12.6c0-0.9,0.2-1.6,0.6-2.3
	c-0.2,0.6-0.2,1.4,0.5,2.1c0,0-1.4-1.6,0.5-3.3c0.8-0.6,1.6-1,2-1.3c-1.6,0.5-2.3,0-2.3,0c0.5,0.4,1.1,0.4,1.5,0.4
	C8.2,8.2,8.1,8.2,8,8.3C6.7,9,5.5,10.2,5.3,11.8v0c-0.3,1.6-1,2-1,2c0.5-0.3,0.9-1,1-1.2C5.3,14,6,14.9,6.8,15.9
	c0.4,0.5,0.6,1,0.6,1s-0.1-0.5-0.4-1C6.2,15,5.5,13.9,5.4,12.6"/>
<path d="M11.6,9.3v0.3c0.1-0.1,0.3-0.1,0.3-0.1V10c0,0,0,0.2-0.1,0.3h0.4c-0.1-0.1-0.1-0.3-0.1-0.3V9.5c0,0,0.2,0,0.3,0.1V9.3H11.6z
	 M11.4,7.4c0.1,0.1,0.2,0.1,0.2,0.1l0,0V7.3L11.1,7C11.1,7,11.1,7.2,11.4,7.4 M12.7,7.4C12.9,7.2,12.9,7,12.9,7l-0.5,0.2v0.3l0,0
	C12.4,7.5,12.5,7.5,12.7,7.4"/>
<path d="M13.7,6.1c0-0.5-0.8-0.9-1.6-0.9c-0.9,0-1.6,0.4-1.6,0.9l0,0.1l0.3,2l-0.3,0.2L9.5,8.9c0,0-0.2,0.1-0.3,0.2
	C8.9,9.4,8.8,9.7,9,9.8c0-0.3,0.3-0.6,0.7-0.6c0.3,0,0.5,0.1,0.7,0.4c0,0,0.1,0.1,0.1,0.2l0.1,0.2H8.4c0.2,0.3,0.3,0.7,0.3,1.1v5.1
	c0,1.2,0.9,1.8,2,1.8c0.8,0,0.9,0,1.3,0.4c0.4-0.4,0.5-0.4,1.3-0.4c1,0,2-0.6,2-1.8v-5.1c0-0.4,0.1-0.7,0.3-1.1h-2.3l0.1-0.2
	c0-0.1,0.1-0.1,0.1-0.2c0.2-0.2,0.4-0.4,0.7-0.4c0.4,0,0.6,0.3,0.7,0.6c0.2-0.1,0.1-0.5-0.2-0.7c-0.1-0.1-0.3-0.2-0.3-0.2l-0.9-0.5
	l-0.3-0.2L13.7,6.1C13.6,6.2,13.7,6.1,13.7,6.1z M10.7,6.4l1.2,0.4v1.9L11,8.2C11,8.2,10.7,6.4,10.7,6.4z M11,10.4
	c0.2,0.2,0.4,0.3,0.6,0.4c0,0.1,0,0.3,0,0.5c0.1,0.1,0.2,0.3,0.4,0.4c0,0.2,0.1,0.5,0.5,0.6l-0.3,0.3l-1.4,0c0,0-0.1,0-0.1-0.1v0
	l0.2,0h0c0,0,0.1,0,0.1-0.1c0,0,0-0.1-0.1-0.1l-0.3,0l0.3-1.1l-0.3-0.6l-0.5,0.5l0,1.1l-0.3,0c0,0-0.1,0-0.1,0.1c0,0,0,0.1,0.1,0.1
	l0.1,0c0,0-0.1,0-0.1,0l0,0v0C9.7,12.8,9.9,13,10,13.2v0c0,0,0,0.1,0,0.1c0,0,0.1,0.1,0.1,0.1h0c0.1,0,0.1,0,0.2-0.1h0.2l1.8,0.3
	l0,0c0.1-0.1,0.7-0.5,0.9-0.6c0,0,0.1,0.1,0.2,0.1c0,0.2-0.1,0.5,0.2,0.7H9v-2.6c0-0.2-0.1-0.5-0.2-0.8C8.9,10.4,11,10.4,11,10.4z
	 M13.2,12.8c-0.2,0.1-0.6,0.5-0.8,0.6l-1.7-0.3v0c0-0.1,0-0.2,0-0.3l1.4,0l0,0c0,0,0.5-0.4,0.7-0.7c0,0.1,0.1,0.1,0.2,0.2
	C13.1,12.4,13.1,12.6,13.2,12.8 M10.4,12.5c0,0.1,0.1,0.1,0.1,0.2c0,0.1,0,0.2,0,0.3c0,0,0,0,0,0.1v0c-0.1,0-0.2,0-0.3,0
	c-0.1,0-0.3-0.3-0.3-0.5c0,0,0.2-0.1,0.3-0.1S10.4,12.4,10.4,12.5 M10.3,12.2l0-1.1l0.2-0.2l0.1,0.3l-0.3,1
	C10.4,12.2,10.3,12.2,10.3,12.2z M13.2,17.7h-0.2l0.2-0.6c0-0.1-0.1-0.2-0.2-0.3c0.1,0,0.3,0.2,0.5,0.2
	C13.4,17.1,13.2,17.7,13.2,17.7 M13.8,17l-0.1,0.7c-0.1,0-0.2,0-0.2,0l0.1-0.6c0-0.2-0.5-0.2-0.7-0.6c-0.1,0.1-0.3,0.2-0.6,0.2
	c-0.2,0-0.4,0-0.5,0h-0.1c-0.1,0-0.1,0-0.2,0.1l0,0.1l-0.7-0.2l-0.2,0.3c0,0,0,0.1,0,0.1l0,0c0,0.1-0.2,0.2-0.2,0.2l-0.1-0.1
	c-0.1-0.1-0.1-0.3,0-0.4l0.3-0.5l0.6,0.1l-0.1-0.2c-0.1-0.3,0.1-0.6,0.1-0.8c0,0-0.1,0.1-0.1,0.1h-0.2l-0.1,0.1l-0.1-0.1
	c0,0,0-0.1,0-0.1l0.3-0.3l-0.3-0.4l0.5,0.2l0.1-0.2c0,0,0,0.1,0,0.1c0.1,0,0.6,0.2,0.6,0.8v0.1c0,0,0.1,0.1,0.2,0.1l0.7,0.1
	c0.1,0,0.2-0.1,0.4-0.1c0.1,0,0.2,0,0.3,0.1c0,0,0,0,0.1,0h0c0.3,0,0.4,0.3,0.6,0.5c0.1,0.2,0.3,0.4,0.3,0.4c0,0.1-0.1,0.1-0.2,0.1
	h-0.1c-0.3,0-0.4-0.7-0.5-0.8h0c0,0-0.1,0-0.1,0c0.1,0.2,0,0.3,0.1,0.5c0.1,0.1,0.2,0.2,0.2,0.3C13.8,16.8,13.8,16.9,13.8,17
	 M10.2,16.4L10.2,16.4c0,0.1-0.2,0.2-0.2,0.2l0-0.1c0-0.1,0-0.3,0.1-0.4l0.4-0.2l0.4,0.1c0,0.1,0.1,0.2,0.1,0.2l-0.4-0.1l-0.2,0.2
	C10.2,16.3,10.2,16.3,10.2,16.4 M13.9,17.7l0.1-0.6c0,0,0-0.1,0-0.1c0,0,0.1,0,0.1,0h0.1c0.2,0,0.3-0.1,0.3-0.2l0.1-0.1l-0.1-0.1
	c0,0-0.2-0.3-0.3-0.4c0,0,0-0.1-0.1-0.1c-0.1-0.2-0.3-0.5-0.7-0.5h0c0,0-0.1,0-0.1,0c-0.1,0-0.2-0.1-0.3-0.1c-0.1,0-0.3,0-0.3,0.1
	c0,0,0,0-0.1,0L12,15.5c0,0,0,0-0.1,0l0.1,0c0-0.5-0.5-0.8-0.7-0.9c0,0,0-0.1-0.1-0.1l-0.1-0.1L11,14.5l0,0L10,14.2l0.6,0.7
	l-0.2,0.3c-0.1,0.1,0,0.2,0,0.2l0.2,0.2l0.2-0.1h0c0,0,0,0.2,0,0.2l-0.4,0l-0.5,0.2c-0.2,0.2-0.3,0.5-0.2,0.6l0,0.1l0.1,0.1l0.1-0.1
	c0,0.2,0,0.4,0.1,0.5l0.1,0.1l0.1,0.2l0.1-0.1c0,0,0.2-0.2,0.2-0.3l0-0.1l-0.1-0.1v0l0.1-0.1l0.6,0.1l0.1,0l0.1-0.1l0,0c0,0,0,0,0,0
	h0.1c0.2,0,0.4,0,0.6,0s0.3,0,0.4,0c0,0,0.3,0.3,0.3,0.4l-0.2,0.6v0c-0.3,0-0.5,0.1-0.7,0.3c-0.3-0.3-0.5-0.3-1.3-0.3
	c-1,0-1.6-0.6-1.6-1.5v-2.2H15v2.2C15,17,14.5,17.5,13.9,17.7 M15.1,10.4C15,10.6,15,10.9,15,11.1v1.7c-0.3,0-0.4-0.4-0.4-0.4v-0.1
	h-0.1c-0.1,0-0.2-0.1-0.3-0.1C14,12,14,11.7,14,11.7c0,0-0.2,0.3,0,0.6c0.1,0.1,0.2,0.2,0.4,0.2c0,0.2,0.2,0.5,0.6,0.5v0.8h-1
	c-0.5-0.3-0.3-0.7-0.3-0.7l0-0.1l-0.1-0.1c-0.5-0.2-0.4-0.7-0.4-0.7l0-0.1l-0.1,0c-0.4-0.2-0.4-0.7-0.4-0.7
	c-0.1,0.1-0.2,0.3-0.1,0.5c0,0-0.1,0.1-0.2,0.2c-0.4-0.1-0.4-0.5-0.4-0.5v-0.1l0,0c-0.2-0.1-0.3-0.1-0.3-0.3c-0.1-0.1,0-0.3,0-0.4
	c0,0,0.1,0,0.1,0h0.3c0.3,0,0.6-0.1,0.9-0.5L15.1,10.4L15.1,10.4z M13.5,8.7l0.4,0.2L14,9c-0.2,0.1-0.4,0.2-0.5,0.3l0,0
	c0,0-0.1,0.1-0.1,0.1c0,0,0,0,0,0c0,0,0,0.1-0.1,0.1c0,0,0,0,0,0c0,0-0.1,0.1-0.1,0.1c-0.3,0.5-0.7,0.8-1.2,0.8s-0.9-0.3-1.2-0.8
	c0,0-0.1-0.1-0.1-0.1l0,0c0,0,0-0.1-0.1-0.1l0,0c0,0-0.1-0.1-0.1-0.1l0,0C10.3,9.2,10.1,9,9.9,9l0.1,0l0.4-0.2l0.4-0.2l1.1,0.6
	L13,8.4L13.5,8.7z M13,8.2l-0.9,0.5V6.8l1.2-0.4C13.3,6.3,13,8.2,13,8.2z M12,6.6L10.7,6c0.1-0.3,0.6-0.5,1.3-0.5s1.2,0.2,1.3,0.5
	L12,6.6z"/>
</svg>
